<?xml version="1.0" encoding="utf-8" standalone="no"?>
<!DOCTYPE svg PUBLIC "-//W3C//DTD SVG 1.1//EN"
  "http://www.w3.org/Graphics/SVG/1.1/DTD/svg11.dtd">
<svg xmlns:xlink="http://www.w3.org/1999/xlink" width="709.908pt" height="439.865284pt" viewBox="0 0 709.908 439.865284" xmlns="http://www.w3.org/2000/svg" version="1.1">
 <metadata>
  <rdf:RDF xmlns:dc="http://purl.org/dc/elements/1.1/" xmlns:cc="http://creativecommons.org/ns#" xmlns:rdf="http://www.w3.org/1999/02/22-rdf-syntax-ns#">
   <cc:Work>
    <dc:type rdf:resource="http://purl.org/dc/dcmitype/StillImage"/>
    <dc:date>2024-01-10T14:54:19.555715</dc:date>
    <dc:format>image/svg+xml</dc:format>
    <dc:creator>
     <cc:Agent>
      <dc:title>Matplotlib v3.5.1, https://matplotlib.org/</dc:title>
     </cc:Agent>
    </dc:creator>
   </cc:Work>
  </rdf:RDF>
 </metadata>
 <defs>
  <style type="text/css">*{stroke-linejoin: round; stroke-linecap: butt}</style>
 </defs>
 <g id="figure_1">
  <g id="patch_1">
   <path d="M 0 439.865284 
L 709.908 439.865284 
L 709.908 0 
L 0 0 
L 0 439.865284 
z
" style="fill: none"/>
  </g>
  <g id="axes_1">
   <g id="patch_2">
    <path d="M 10.7 345.917616 
L 702.708 345.917616 
L 702.708 118.042 
L 10.7 118.042 
z
" style="fill: #ffffff"/>
   </g>
   <g id="patch_3">
    <path d="M 173.314424 345.917616 
L 173.314424 118.042 
L 402.903512 118.042 
L 402.903512 345.917616 
z
" clip-path="url(#p9bb2df2614)" style="fill: #808080; opacity: 0.3; stroke: #808080; stroke-linejoin: miter"/>
   </g>
   <g id="patch_4">
    <path d="M 110.106929 345.917616 
L 110.106929 118.042 
L 468.302264 118.042 
L 468.302264 345.917616 
z
" clip-path="url(#p9bb2df2614)" style="fill: #808080; opacity: 0.1; stroke: #808080; stroke-linejoin: miter"/>
   </g>
   <g id="matplotlib.axis_1">
    <g id="xtick_1">
     <g id="line2d_1">
      <defs>
       <path id="me50eeae684" d="M 0 0 
L 0 3.5 
" style="stroke: #000000; stroke-width: 2"/>
      </defs>
      <g>
       <use xlink:href="#me50eeae684" x="72.387256" y="345.917616" style="stroke: #000000; stroke-width: 2"/>
      </g>
     </g>
     <g id="text_1">
      <!-- −3 -->
      <g transform="translate(55.516006 369.634179)scale(0.22 -0.22)">
       <defs>
        <path id="DejaVuSans-Bold-2212" d="M 678 2375 
L 4684 2375 
L 4684 1638 
L 678 1638 
L 678 2375 
z
" transform="scale(0.015625)"/>
        <path id="DejaVuSans-Bold-33" d="M 2981 2516 
Q 3453 2394 3698 2092 
Q 3944 1791 3944 1325 
Q 3944 631 3412 270 
Q 2881 -91 1863 -91 
Q 1503 -91 1142 -33 
Q 781 25 428 141 
L 428 1069 
Q 766 900 1098 814 
Q 1431 728 1753 728 
Q 2231 728 2486 893 
Q 2741 1059 2741 1369 
Q 2741 1688 2480 1852 
Q 2219 2016 1709 2016 
L 1228 2016 
L 1228 2791 
L 1734 2791 
Q 2188 2791 2409 2933 
Q 2631 3075 2631 3366 
Q 2631 3634 2415 3781 
Q 2200 3928 1806 3928 
Q 1516 3928 1219 3862 
Q 922 3797 628 3669 
L 628 4550 
Q 984 4650 1334 4700 
Q 1684 4750 2022 4750 
Q 2931 4750 3382 4451 
Q 3834 4153 3834 3553 
Q 3834 3144 3618 2883 
Q 3403 2622 2981 2516 
z
" transform="scale(0.015625)"/>
       </defs>
       <use xlink:href="#DejaVuSans-Bold-2212"/>
       <use xlink:href="#DejaVuSans-Bold-33" x="83.789062"/>
      </g>
     </g>
    </g>
    <g id="xtick_2">
     <g id="line2d_2">
      <g>
       <use xlink:href="#me50eeae684" x="167.159504" y="345.917616" style="stroke: #000000; stroke-width: 2"/>
      </g>
     </g>
     <g id="text_2">
      <!-- −2 -->
      <g transform="translate(150.288254 369.634179)scale(0.22 -0.22)">
       <defs>
        <path id="DejaVuSans-Bold-32" d="M 1844 884 
L 3897 884 
L 3897 0 
L 506 0 
L 506 884 
L 2209 2388 
Q 2438 2594 2547 2791 
Q 2656 2988 2656 3200 
Q 2656 3528 2436 3728 
Q 2216 3928 1850 3928 
Q 1569 3928 1234 3808 
Q 900 3688 519 3450 
L 519 4475 
Q 925 4609 1322 4679 
Q 1719 4750 2100 4750 
Q 2938 4750 3402 4381 
Q 3866 4013 3866 3353 
Q 3866 2972 3669 2642 
Q 3472 2313 2841 1759 
L 1844 884 
z
" transform="scale(0.015625)"/>
       </defs>
       <use xlink:href="#DejaVuSans-Bold-2212"/>
       <use xlink:href="#DejaVuSans-Bold-32" x="83.789062"/>
      </g>
     </g>
    </g>
    <g id="xtick_3">
     <g id="line2d_3">
      <g>
       <use xlink:href="#me50eeae684" x="261.931752" y="345.917616" style="stroke: #000000; stroke-width: 2"/>
      </g>
     </g>
     <g id="text_3">
      <!-- −1 -->
      <g transform="translate(245.060502 369.634179)scale(0.22 -0.22)">
       <defs>
        <path id="DejaVuSans-Bold-31" d="M 750 831 
L 1813 831 
L 1813 3847 
L 722 3622 
L 722 4441 
L 1806 4666 
L 2950 4666 
L 2950 831 
L 4013 831 
L 4013 0 
L 750 0 
L 750 831 
z
" transform="scale(0.015625)"/>
       </defs>
       <use xlink:href="#DejaVuSans-Bold-2212"/>
       <use xlink:href="#DejaVuSans-Bold-31" x="83.789062"/>
      </g>
     </g>
    </g>
    <g id="xtick_4">
     <g id="line2d_4">
      <g>
       <use xlink:href="#me50eeae684" x="356.704" y="345.917616" style="stroke: #000000; stroke-width: 2"/>
      </g>
     </g>
     <g id="text_4">
      <!-- 0 -->
      <g transform="translate(349.050406 369.634179)scale(0.22 -0.22)">
       <defs>
        <path id="DejaVuSans-Bold-30" d="M 2944 2338 
Q 2944 3213 2780 3570 
Q 2616 3928 2228 3928 
Q 1841 3928 1675 3570 
Q 1509 3213 1509 2338 
Q 1509 1453 1675 1090 
Q 1841 728 2228 728 
Q 2613 728 2778 1090 
Q 2944 1453 2944 2338 
z
M 4147 2328 
Q 4147 1169 3647 539 
Q 3147 -91 2228 -91 
Q 1306 -91 806 539 
Q 306 1169 306 2328 
Q 306 3491 806 4120 
Q 1306 4750 2228 4750 
Q 3147 4750 3647 4120 
Q 4147 3491 4147 2328 
z
" transform="scale(0.015625)"/>
       </defs>
       <use xlink:href="#DejaVuSans-Bold-30"/>
      </g>
     </g>
    </g>
    <g id="xtick_5">
     <g id="line2d_5">
      <g>
       <use xlink:href="#me50eeae684" x="451.476248" y="345.917616" style="stroke: #000000; stroke-width: 2"/>
      </g>
     </g>
     <g id="text_5">
      <!-- 1 -->
      <g transform="translate(443.822654 369.634179)scale(0.22 -0.22)">
       <use xlink:href="#DejaVuSans-Bold-31"/>
      </g>
     </g>
    </g>
    <g id="xtick_6">
     <g id="line2d_6">
      <g>
       <use xlink:href="#me50eeae684" x="546.248496" y="345.917616" style="stroke: #000000; stroke-width: 2"/>
      </g>
     </g>
     <g id="text_6">
      <!-- 2 -->
      <g transform="translate(538.594902 369.634179)scale(0.22 -0.22)">
       <use xlink:href="#DejaVuSans-Bold-32"/>
      </g>
     </g>
    </g>
    <g id="xtick_7">
     <g id="line2d_7">
      <g>
       <use xlink:href="#me50eeae684" x="641.020744" y="345.917616" style="stroke: #000000; stroke-width: 2"/>
      </g>
     </g>
     <g id="text_7">
      <!-- 3 -->
      <g transform="translate(633.36715 369.634179)scale(0.22 -0.22)">
       <use xlink:href="#DejaVuSans-Bold-33"/>
      </g>
     </g>
    </g>
    <g id="xtick_8">
     <g id="line2d_8">
      <defs>
       <path id="ma6cce18ea7" d="M 0 0 
L 0 2 
" style="stroke: #000000; stroke-width: 0.6"/>
      </defs>
      <g>
       <use xlink:href="#ma6cce18ea7" x="15.523907" y="345.917616" style="stroke: #000000; stroke-width: 0.6"/>
      </g>
     </g>
    </g>
    <g id="xtick_9">
     <g id="line2d_9">
      <g>
       <use xlink:href="#ma6cce18ea7" x="25.001132" y="345.917616" style="stroke: #000000; stroke-width: 0.6"/>
      </g>
     </g>
    </g>
    <g id="xtick_10">
     <g id="line2d_10">
      <g>
       <use xlink:href="#ma6cce18ea7" x="34.478357" y="345.917616" style="stroke: #000000; stroke-width: 0.6"/>
      </g>
     </g>
    </g>
    <g id="xtick_11">
     <g id="line2d_11">
      <g>
       <use xlink:href="#ma6cce18ea7" x="43.955582" y="345.917616" style="stroke: #000000; stroke-width: 0.6"/>
      </g>
     </g>
    </g>
    <g id="xtick_12">
     <g id="line2d_12">
      <g>
       <use xlink:href="#ma6cce18ea7" x="53.432807" y="345.917616" style="stroke: #000000; stroke-width: 0.6"/>
      </g>
     </g>
    </g>
    <g id="xtick_13">
     <g id="line2d_13">
      <g>
       <use xlink:href="#ma6cce18ea7" x="62.910031" y="345.917616" style="stroke: #000000; stroke-width: 0.6"/>
      </g>
     </g>
    </g>
    <g id="xtick_14">
     <g id="line2d_14">
      <g>
       <use xlink:href="#ma6cce18ea7" x="81.864481" y="345.917616" style="stroke: #000000; stroke-width: 0.6"/>
      </g>
     </g>
    </g>
    <g id="xtick_15">
     <g id="line2d_15">
      <g>
       <use xlink:href="#ma6cce18ea7" x="91.341706" y="345.917616" style="stroke: #000000; stroke-width: 0.6"/>
      </g>
     </g>
    </g>
    <g id="xtick_16">
     <g id="line2d_16">
      <g>
       <use xlink:href="#ma6cce18ea7" x="100.818931" y="345.917616" style="stroke: #000000; stroke-width: 0.6"/>
      </g>
     </g>
    </g>
    <g id="xtick_17">
     <g id="line2d_17">
      <g>
       <use xlink:href="#ma6cce18ea7" x="110.296155" y="345.917616" style="stroke: #000000; stroke-width: 0.6"/>
      </g>
     </g>
    </g>
    <g id="xtick_18">
     <g id="line2d_18">
      <g>
       <use xlink:href="#ma6cce18ea7" x="119.77338" y="345.917616" style="stroke: #000000; stroke-width: 0.6"/>
      </g>
     </g>
    </g>
    <g id="xtick_19">
     <g id="line2d_19">
      <g>
       <use xlink:href="#ma6cce18ea7" x="129.250605" y="345.917616" style="stroke: #000000; stroke-width: 0.6"/>
      </g>
     </g>
    </g>
    <g id="xtick_20">
     <g id="line2d_20">
      <g>
       <use xlink:href="#ma6cce18ea7" x="138.72783" y="345.917616" style="stroke: #000000; stroke-width: 0.6"/>
      </g>
     </g>
    </g>
    <g id="xtick_21">
     <g id="line2d_21">
      <g>
       <use xlink:href="#ma6cce18ea7" x="148.205055" y="345.917616" style="stroke: #000000; stroke-width: 0.6"/>
      </g>
     </g>
    </g>
    <g id="xtick_22">
     <g id="line2d_22">
      <g>
       <use xlink:href="#ma6cce18ea7" x="157.682279" y="345.917616" style="stroke: #000000; stroke-width: 0.6"/>
      </g>
     </g>
    </g>
    <g id="xtick_23">
     <g id="line2d_23">
      <g>
       <use xlink:href="#ma6cce18ea7" x="176.636729" y="345.917616" style="stroke: #000000; stroke-width: 0.6"/>
      </g>
     </g>
    </g>
    <g id="xtick_24">
     <g id="line2d_24">
      <g>
       <use xlink:href="#ma6cce18ea7" x="186.113954" y="345.917616" style="stroke: #000000; stroke-width: 0.6"/>
      </g>
     </g>
    </g>
    <g id="xtick_25">
     <g id="line2d_25">
      <g>
       <use xlink:href="#ma6cce18ea7" x="195.591179" y="345.917616" style="stroke: #000000; stroke-width: 0.6"/>
      </g>
     </g>
    </g>
    <g id="xtick_26">
     <g id="line2d_26">
      <g>
       <use xlink:href="#ma6cce18ea7" x="205.068403" y="345.917616" style="stroke: #000000; stroke-width: 0.6"/>
      </g>
     </g>
    </g>
    <g id="xtick_27">
     <g id="line2d_27">
      <g>
       <use xlink:href="#ma6cce18ea7" x="214.545628" y="345.917616" style="stroke: #000000; stroke-width: 0.6"/>
      </g>
     </g>
    </g>
    <g id="xtick_28">
     <g id="line2d_28">
      <g>
       <use xlink:href="#ma6cce18ea7" x="224.022853" y="345.917616" style="stroke: #000000; stroke-width: 0.6"/>
      </g>
     </g>
    </g>
    <g id="xtick_29">
     <g id="line2d_29">
      <g>
       <use xlink:href="#ma6cce18ea7" x="233.500078" y="345.917616" style="stroke: #000000; stroke-width: 0.6"/>
      </g>
     </g>
    </g>
    <g id="xtick_30">
     <g id="line2d_30">
      <g>
       <use xlink:href="#ma6cce18ea7" x="242.977302" y="345.917616" style="stroke: #000000; stroke-width: 0.6"/>
      </g>
     </g>
    </g>
    <g id="xtick_31">
     <g id="line2d_31">
      <g>
       <use xlink:href="#ma6cce18ea7" x="252.454527" y="345.917616" style="stroke: #000000; stroke-width: 0.6"/>
      </g>
     </g>
    </g>
    <g id="xtick_32">
     <g id="line2d_32">
      <g>
       <use xlink:href="#ma6cce18ea7" x="271.408977" y="345.917616" style="stroke: #000000; stroke-width: 0.6"/>
      </g>
     </g>
    </g>
    <g id="xtick_33">
     <g id="line2d_33">
      <g>
       <use xlink:href="#ma6cce18ea7" x="280.886202" y="345.917616" style="stroke: #000000; stroke-width: 0.6"/>
      </g>
     </g>
    </g>
    <g id="xtick_34">
     <g id="line2d_34">
      <g>
       <use xlink:href="#ma6cce18ea7" x="290.363426" y="345.917616" style="stroke: #000000; stroke-width: 0.6"/>
      </g>
     </g>
    </g>
    <g id="xtick_35">
     <g id="line2d_35">
      <g>
       <use xlink:href="#ma6cce18ea7" x="299.840651" y="345.917616" style="stroke: #000000; stroke-width: 0.6"/>
      </g>
     </g>
    </g>
    <g id="xtick_36">
     <g id="line2d_36">
      <g>
       <use xlink:href="#ma6cce18ea7" x="309.317876" y="345.917616" style="stroke: #000000; stroke-width: 0.6"/>
      </g>
     </g>
    </g>
    <g id="xtick_37">
     <g id="line2d_37">
      <g>
       <use xlink:href="#ma6cce18ea7" x="318.795101" y="345.917616" style="stroke: #000000; stroke-width: 0.6"/>
      </g>
     </g>
    </g>
    <g id="xtick_38">
     <g id="line2d_38">
      <g>
       <use xlink:href="#ma6cce18ea7" x="328.272326" y="345.917616" style="stroke: #000000; stroke-width: 0.6"/>
      </g>
     </g>
    </g>
    <g id="xtick_39">
     <g id="line2d_39">
      <g>
       <use xlink:href="#ma6cce18ea7" x="337.74955" y="345.917616" style="stroke: #000000; stroke-width: 0.6"/>
      </g>
     </g>
    </g>
    <g id="xtick_40">
     <g id="line2d_40">
      <g>
       <use xlink:href="#ma6cce18ea7" x="347.226775" y="345.917616" style="stroke: #000000; stroke-width: 0.6"/>
      </g>
     </g>
    </g>
    <g id="xtick_41">
     <g id="line2d_41">
      <g>
       <use xlink:href="#ma6cce18ea7" x="366.181225" y="345.917616" style="stroke: #000000; stroke-width: 0.6"/>
      </g>
     </g>
    </g>
    <g id="xtick_42">
     <g id="line2d_42">
      <g>
       <use xlink:href="#ma6cce18ea7" x="375.65845" y="345.917616" style="stroke: #000000; stroke-width: 0.6"/>
      </g>
     </g>
    </g>
    <g id="xtick_43">
     <g id="line2d_43">
      <g>
       <use xlink:href="#ma6cce18ea7" x="385.135674" y="345.917616" style="stroke: #000000; stroke-width: 0.6"/>
      </g>
     </g>
    </g>
    <g id="xtick_44">
     <g id="line2d_44">
      <g>
       <use xlink:href="#ma6cce18ea7" x="394.612899" y="345.917616" style="stroke: #000000; stroke-width: 0.6"/>
      </g>
     </g>
    </g>
    <g id="xtick_45">
     <g id="line2d_45">
      <g>
       <use xlink:href="#ma6cce18ea7" x="404.090124" y="345.917616" style="stroke: #000000; stroke-width: 0.6"/>
      </g>
     </g>
    </g>
    <g id="xtick_46">
     <g id="line2d_46">
      <g>
       <use xlink:href="#ma6cce18ea7" x="413.567349" y="345.917616" style="stroke: #000000; stroke-width: 0.6"/>
      </g>
     </g>
    </g>
    <g id="xtick_47">
     <g id="line2d_47">
      <g>
       <use xlink:href="#ma6cce18ea7" x="423.044574" y="345.917616" style="stroke: #000000; stroke-width: 0.6"/>
      </g>
     </g>
    </g>
    <g id="xtick_48">
     <g id="line2d_48">
      <g>
       <use xlink:href="#ma6cce18ea7" x="432.521798" y="345.917616" style="stroke: #000000; stroke-width: 0.6"/>
      </g>
     </g>
    </g>
    <g id="xtick_49">
     <g id="line2d_49">
      <g>
       <use xlink:href="#ma6cce18ea7" x="441.999023" y="345.917616" style="stroke: #000000; stroke-width: 0.6"/>
      </g>
     </g>
    </g>
    <g id="xtick_50">
     <g id="line2d_50">
      <g>
       <use xlink:href="#ma6cce18ea7" x="460.953473" y="345.917616" style="stroke: #000000; stroke-width: 0.6"/>
      </g>
     </g>
    </g>
    <g id="xtick_51">
     <g id="line2d_51">
      <g>
       <use xlink:href="#ma6cce18ea7" x="470.430698" y="345.917616" style="stroke: #000000; stroke-width: 0.6"/>
      </g>
     </g>
    </g>
    <g id="xtick_52">
     <g id="line2d_52">
      <g>
       <use xlink:href="#ma6cce18ea7" x="479.907922" y="345.917616" style="stroke: #000000; stroke-width: 0.6"/>
      </g>
     </g>
    </g>
    <g id="xtick_53">
     <g id="line2d_53">
      <g>
       <use xlink:href="#ma6cce18ea7" x="489.385147" y="345.917616" style="stroke: #000000; stroke-width: 0.6"/>
      </g>
     </g>
    </g>
    <g id="xtick_54">
     <g id="line2d_54">
      <g>
       <use xlink:href="#ma6cce18ea7" x="498.862372" y="345.917616" style="stroke: #000000; stroke-width: 0.6"/>
      </g>
     </g>
    </g>
    <g id="xtick_55">
     <g id="line2d_55">
      <g>
       <use xlink:href="#ma6cce18ea7" x="508.339597" y="345.917616" style="stroke: #000000; stroke-width: 0.6"/>
      </g>
     </g>
    </g>
    <g id="xtick_56">
     <g id="line2d_56">
      <g>
       <use xlink:href="#ma6cce18ea7" x="517.816821" y="345.917616" style="stroke: #000000; stroke-width: 0.6"/>
      </g>
     </g>
    </g>
    <g id="xtick_57">
     <g id="line2d_57">
      <g>
       <use xlink:href="#ma6cce18ea7" x="527.294046" y="345.917616" style="stroke: #000000; stroke-width: 0.6"/>
      </g>
     </g>
    </g>
    <g id="xtick_58">
     <g id="line2d_58">
      <g>
       <use xlink:href="#ma6cce18ea7" x="536.771271" y="345.917616" style="stroke: #000000; stroke-width: 0.6"/>
      </g>
     </g>
    </g>
    <g id="xtick_59">
     <g id="line2d_59">
      <g>
       <use xlink:href="#ma6cce18ea7" x="555.725721" y="345.917616" style="stroke: #000000; stroke-width: 0.6"/>
      </g>
     </g>
    </g>
    <g id="xtick_60">
     <g id="line2d_60">
      <g>
       <use xlink:href="#ma6cce18ea7" x="565.202945" y="345.917616" style="stroke: #000000; stroke-width: 0.6"/>
      </g>
     </g>
    </g>
    <g id="xtick_61">
     <g id="line2d_61">
      <g>
       <use xlink:href="#ma6cce18ea7" x="574.68017" y="345.917616" style="stroke: #000000; stroke-width: 0.6"/>
      </g>
     </g>
    </g>
    <g id="xtick_62">
     <g id="line2d_62">
      <g>
       <use xlink:href="#ma6cce18ea7" x="584.157395" y="345.917616" style="stroke: #000000; stroke-width: 0.6"/>
      </g>
     </g>
    </g>
    <g id="xtick_63">
     <g id="line2d_63">
      <g>
       <use xlink:href="#ma6cce18ea7" x="593.63462" y="345.917616" style="stroke: #000000; stroke-width: 0.6"/>
      </g>
     </g>
    </g>
    <g id="xtick_64">
     <g id="line2d_64">
      <g>
       <use xlink:href="#ma6cce18ea7" x="603.111845" y="345.917616" style="stroke: #000000; stroke-width: 0.6"/>
      </g>
     </g>
    </g>
    <g id="xtick_65">
     <g id="line2d_65">
      <g>
       <use xlink:href="#ma6cce18ea7" x="612.589069" y="345.917616" style="stroke: #000000; stroke-width: 0.6"/>
      </g>
     </g>
    </g>
    <g id="xtick_66">
     <g id="line2d_66">
      <g>
       <use xlink:href="#ma6cce18ea7" x="622.066294" y="345.917616" style="stroke: #000000; stroke-width: 0.6"/>
      </g>
     </g>
    </g>
    <g id="xtick_67">
     <g id="line2d_67">
      <g>
       <use xlink:href="#ma6cce18ea7" x="631.543519" y="345.917616" style="stroke: #000000; stroke-width: 0.6"/>
      </g>
     </g>
    </g>
    <g id="xtick_68">
     <g id="line2d_68">
      <g>
       <use xlink:href="#ma6cce18ea7" x="650.497969" y="345.917616" style="stroke: #000000; stroke-width: 0.6"/>
      </g>
     </g>
    </g>
    <g id="xtick_69">
     <g id="line2d_69">
      <g>
       <use xlink:href="#ma6cce18ea7" x="659.975193" y="345.917616" style="stroke: #000000; stroke-width: 0.6"/>
      </g>
     </g>
    </g>
    <g id="xtick_70">
     <g id="line2d_70">
      <g>
       <use xlink:href="#ma6cce18ea7" x="669.452418" y="345.917616" style="stroke: #000000; stroke-width: 0.6"/>
      </g>
     </g>
    </g>
    <g id="xtick_71">
     <g id="line2d_71">
      <g>
       <use xlink:href="#ma6cce18ea7" x="678.929643" y="345.917616" style="stroke: #000000; stroke-width: 0.6"/>
      </g>
     </g>
    </g>
    <g id="xtick_72">
     <g id="line2d_72">
      <g>
       <use xlink:href="#ma6cce18ea7" x="688.406868" y="345.917616" style="stroke: #000000; stroke-width: 0.6"/>
      </g>
     </g>
    </g>
    <g id="xtick_73">
     <g id="line2d_73">
      <g>
       <use xlink:href="#ma6cce18ea7" x="697.884093" y="345.917616" style="stroke: #000000; stroke-width: 0.6"/>
      </g>
     </g>
    </g>
    <g id="text_8">
     <!-- jährliche Massenbilanz (Tonnen pro m$^2$) -->
     <g transform="translate(87.544 400.049491)scale(0.24 -0.24)">
      <defs>
       <path id="DejaVuSans-Bold-6a" d="M 538 3500 
L 1656 3500 
L 1656 63 
Q 1656 -641 1318 -1011 
Q 981 -1381 341 -1381 
L -213 -1381 
L -213 -647 
L -19 -647 
Q 300 -647 419 -503 
Q 538 -359 538 63 
L 538 3500 
z
M 538 4863 
L 1656 4863 
L 1656 3950 
L 538 3950 
L 538 4863 
z
" transform="scale(0.015625)"/>
       <path id="DejaVuSans-Bold-e4" d="M 2106 1575 
Q 1756 1575 1579 1456 
Q 1403 1338 1403 1106 
Q 1403 894 1545 773 
Q 1688 653 1941 653 
Q 2256 653 2472 879 
Q 2688 1106 2688 1447 
L 2688 1575 
L 2106 1575 
z
M 3816 1997 
L 3816 0 
L 2688 0 
L 2688 519 
Q 2463 200 2181 54 
Q 1900 -91 1497 -91 
Q 953 -91 614 226 
Q 275 544 275 1050 
Q 275 1666 698 1953 
Q 1122 2241 2028 2241 
L 2688 2241 
L 2688 2328 
Q 2688 2594 2478 2717 
Q 2269 2841 1825 2841 
Q 1466 2841 1156 2769 
Q 847 2697 581 2553 
L 581 3406 
Q 941 3494 1303 3539 
Q 1666 3584 2028 3584 
Q 2975 3584 3395 3211 
Q 3816 2838 3816 1997 
z
M 1197 4953 
L 1931 4953 
L 1931 4184 
L 1197 4184 
L 1197 4953 
z
M 2431 4953 
L 3166 4953 
L 3166 4184 
L 2431 4184 
L 2431 4953 
z
" transform="scale(0.015625)"/>
       <path id="DejaVuSans-Bold-68" d="M 4056 2131 
L 4056 0 
L 2931 0 
L 2931 347 
L 2931 1625 
Q 2931 2084 2911 2256 
Q 2891 2428 2841 2509 
Q 2775 2619 2662 2680 
Q 2550 2741 2406 2741 
Q 2056 2741 1856 2470 
Q 1656 2200 1656 1722 
L 1656 0 
L 538 0 
L 538 4863 
L 1656 4863 
L 1656 2988 
Q 1909 3294 2193 3439 
Q 2478 3584 2822 3584 
Q 3428 3584 3742 3212 
Q 4056 2841 4056 2131 
z
" transform="scale(0.015625)"/>
       <path id="DejaVuSans-Bold-72" d="M 3138 2547 
Q 2991 2616 2845 2648 
Q 2700 2681 2553 2681 
Q 2122 2681 1889 2404 
Q 1656 2128 1656 1613 
L 1656 0 
L 538 0 
L 538 3500 
L 1656 3500 
L 1656 2925 
Q 1872 3269 2151 3426 
Q 2431 3584 2822 3584 
Q 2878 3584 2943 3579 
Q 3009 3575 3134 3559 
L 3138 2547 
z
" transform="scale(0.015625)"/>
       <path id="DejaVuSans-Bold-6c" d="M 538 4863 
L 1656 4863 
L 1656 0 
L 538 0 
L 538 4863 
z
" transform="scale(0.015625)"/>
       <path id="DejaVuSans-Bold-69" d="M 538 3500 
L 1656 3500 
L 1656 0 
L 538 0 
L 538 3500 
z
M 538 4863 
L 1656 4863 
L 1656 3950 
L 538 3950 
L 538 4863 
z
" transform="scale(0.015625)"/>
       <path id="DejaVuSans-Bold-63" d="M 3366 3391 
L 3366 2478 
Q 3138 2634 2908 2709 
Q 2678 2784 2431 2784 
Q 1963 2784 1702 2511 
Q 1441 2238 1441 1747 
Q 1441 1256 1702 982 
Q 1963 709 2431 709 
Q 2694 709 2930 787 
Q 3166 866 3366 1019 
L 3366 103 
Q 3103 6 2833 -42 
Q 2563 -91 2291 -91 
Q 1344 -91 809 395 
Q 275 881 275 1747 
Q 275 2613 809 3098 
Q 1344 3584 2291 3584 
Q 2566 3584 2833 3536 
Q 3100 3488 3366 3391 
z
" transform="scale(0.015625)"/>
       <path id="DejaVuSans-Bold-65" d="M 4031 1759 
L 4031 1441 
L 1416 1441 
Q 1456 1047 1700 850 
Q 1944 653 2381 653 
Q 2734 653 3104 758 
Q 3475 863 3866 1075 
L 3866 213 
Q 3469 63 3072 -14 
Q 2675 -91 2278 -91 
Q 1328 -91 801 392 
Q 275 875 275 1747 
Q 275 2603 792 3093 
Q 1309 3584 2216 3584 
Q 3041 3584 3536 3087 
Q 4031 2591 4031 1759 
z
M 2881 2131 
Q 2881 2450 2695 2645 
Q 2509 2841 2209 2841 
Q 1884 2841 1681 2658 
Q 1478 2475 1428 2131 
L 2881 2131 
z
" transform="scale(0.015625)"/>
       <path id="DejaVuSans-Bold-20" transform="scale(0.015625)"/>
       <path id="DejaVuSans-Bold-4d" d="M 588 4666 
L 2119 4666 
L 3181 2169 
L 4250 4666 
L 5778 4666 
L 5778 0 
L 4641 0 
L 4641 3413 
L 3566 897 
L 2803 897 
L 1728 3413 
L 1728 0 
L 588 0 
L 588 4666 
z
" transform="scale(0.015625)"/>
       <path id="DejaVuSans-Bold-61" d="M 2106 1575 
Q 1756 1575 1579 1456 
Q 1403 1338 1403 1106 
Q 1403 894 1545 773 
Q 1688 653 1941 653 
Q 2256 653 2472 879 
Q 2688 1106 2688 1447 
L 2688 1575 
L 2106 1575 
z
M 3816 1997 
L 3816 0 
L 2688 0 
L 2688 519 
Q 2463 200 2181 54 
Q 1900 -91 1497 -91 
Q 953 -91 614 226 
Q 275 544 275 1050 
Q 275 1666 698 1953 
Q 1122 2241 2028 2241 
L 2688 2241 
L 2688 2328 
Q 2688 2594 2478 2717 
Q 2269 2841 1825 2841 
Q 1466 2841 1156 2769 
Q 847 2697 581 2553 
L 581 3406 
Q 941 3494 1303 3539 
Q 1666 3584 2028 3584 
Q 2975 3584 3395 3211 
Q 3816 2838 3816 1997 
z
" transform="scale(0.015625)"/>
       <path id="DejaVuSans-Bold-73" d="M 3272 3391 
L 3272 2541 
Q 2913 2691 2578 2766 
Q 2244 2841 1947 2841 
Q 1628 2841 1473 2761 
Q 1319 2681 1319 2516 
Q 1319 2381 1436 2309 
Q 1553 2238 1856 2203 
L 2053 2175 
Q 2913 2066 3209 1816 
Q 3506 1566 3506 1031 
Q 3506 472 3093 190 
Q 2681 -91 1863 -91 
Q 1516 -91 1145 -36 
Q 775 19 384 128 
L 384 978 
Q 719 816 1070 734 
Q 1422 653 1784 653 
Q 2113 653 2278 743 
Q 2444 834 2444 1013 
Q 2444 1163 2330 1236 
Q 2216 1309 1875 1350 
L 1678 1375 
Q 931 1469 631 1722 
Q 331 1975 331 2491 
Q 331 3047 712 3315 
Q 1094 3584 1881 3584 
Q 2191 3584 2531 3537 
Q 2872 3491 3272 3391 
z
" transform="scale(0.015625)"/>
       <path id="DejaVuSans-Bold-6e" d="M 4056 2131 
L 4056 0 
L 2931 0 
L 2931 347 
L 2931 1631 
Q 2931 2084 2911 2256 
Q 2891 2428 2841 2509 
Q 2775 2619 2662 2680 
Q 2550 2741 2406 2741 
Q 2056 2741 1856 2470 
Q 1656 2200 1656 1722 
L 1656 0 
L 538 0 
L 538 3500 
L 1656 3500 
L 1656 2988 
Q 1909 3294 2193 3439 
Q 2478 3584 2822 3584 
Q 3428 3584 3742 3212 
Q 4056 2841 4056 2131 
z
" transform="scale(0.015625)"/>
       <path id="DejaVuSans-Bold-62" d="M 2400 722 
Q 2759 722 2948 984 
Q 3138 1247 3138 1747 
Q 3138 2247 2948 2509 
Q 2759 2772 2400 2772 
Q 2041 2772 1848 2508 
Q 1656 2244 1656 1747 
Q 1656 1250 1848 986 
Q 2041 722 2400 722 
z
M 1656 2988 
Q 1888 3294 2169 3439 
Q 2450 3584 2816 3584 
Q 3463 3584 3878 3070 
Q 4294 2556 4294 1747 
Q 4294 938 3878 423 
Q 3463 -91 2816 -91 
Q 2450 -91 2169 54 
Q 1888 200 1656 506 
L 1656 0 
L 538 0 
L 538 4863 
L 1656 4863 
L 1656 2988 
z
" transform="scale(0.015625)"/>
       <path id="DejaVuSans-Bold-7a" d="M 366 3500 
L 3419 3500 
L 3419 2719 
L 1575 800 
L 3419 800 
L 3419 0 
L 288 0 
L 288 781 
L 2131 2700 
L 366 2700 
L 366 3500 
z
" transform="scale(0.015625)"/>
       <path id="DejaVuSans-Bold-28" d="M 2413 -844 
L 1484 -844 
Q 1006 -72 778 623 
Q 550 1319 550 2003 
Q 550 2688 779 3389 
Q 1009 4091 1484 4856 
L 2413 4856 
Q 2013 4116 1813 3408 
Q 1613 2700 1613 2009 
Q 1613 1319 1811 609 
Q 2009 -100 2413 -844 
z
" transform="scale(0.015625)"/>
       <path id="DejaVuSans-Bold-54" d="M 31 4666 
L 4331 4666 
L 4331 3756 
L 2784 3756 
L 2784 0 
L 1581 0 
L 1581 3756 
L 31 3756 
L 31 4666 
z
" transform="scale(0.015625)"/>
       <path id="DejaVuSans-Bold-6f" d="M 2203 2784 
Q 1831 2784 1636 2517 
Q 1441 2250 1441 1747 
Q 1441 1244 1636 976 
Q 1831 709 2203 709 
Q 2569 709 2762 976 
Q 2956 1244 2956 1747 
Q 2956 2250 2762 2517 
Q 2569 2784 2203 2784 
z
M 2203 3584 
Q 3106 3584 3614 3096 
Q 4122 2609 4122 1747 
Q 4122 884 3614 396 
Q 3106 -91 2203 -91 
Q 1297 -91 786 396 
Q 275 884 275 1747 
Q 275 2609 786 3096 
Q 1297 3584 2203 3584 
z
" transform="scale(0.015625)"/>
       <path id="DejaVuSans-Bold-70" d="M 1656 506 
L 1656 -1331 
L 538 -1331 
L 538 3500 
L 1656 3500 
L 1656 2988 
Q 1888 3294 2169 3439 
Q 2450 3584 2816 3584 
Q 3463 3584 3878 3070 
Q 4294 2556 4294 1747 
Q 4294 938 3878 423 
Q 3463 -91 2816 -91 
Q 2450 -91 2169 54 
Q 1888 200 1656 506 
z
M 2400 2772 
Q 2041 2772 1848 2508 
Q 1656 2244 1656 1747 
Q 1656 1250 1848 986 
Q 2041 722 2400 722 
Q 2759 722 2948 984 
Q 3138 1247 3138 1747 
Q 3138 2247 2948 2509 
Q 2759 2772 2400 2772 
z
" transform="scale(0.015625)"/>
       <path id="DejaVuSans-Bold-6d" d="M 3781 2919 
Q 3994 3244 4286 3414 
Q 4578 3584 4928 3584 
Q 5531 3584 5847 3212 
Q 6163 2841 6163 2131 
L 6163 0 
L 5038 0 
L 5038 1825 
Q 5041 1866 5042 1909 
Q 5044 1953 5044 2034 
Q 5044 2406 4934 2573 
Q 4825 2741 4581 2741 
Q 4263 2741 4089 2478 
Q 3916 2216 3909 1719 
L 3909 0 
L 2784 0 
L 2784 1825 
Q 2784 2406 2684 2573 
Q 2584 2741 2328 2741 
Q 2006 2741 1831 2477 
Q 1656 2213 1656 1722 
L 1656 0 
L 531 0 
L 531 3500 
L 1656 3500 
L 1656 2988 
Q 1863 3284 2130 3434 
Q 2397 3584 2719 3584 
Q 3081 3584 3359 3409 
Q 3638 3234 3781 2919 
z
" transform="scale(0.015625)"/>
       <path id="DejaVuSans-32" d="M 1228 531 
L 3431 531 
L 3431 0 
L 469 0 
L 469 531 
Q 828 903 1448 1529 
Q 2069 2156 2228 2338 
Q 2531 2678 2651 2914 
Q 2772 3150 2772 3378 
Q 2772 3750 2511 3984 
Q 2250 4219 1831 4219 
Q 1534 4219 1204 4116 
Q 875 4013 500 3803 
L 500 4441 
Q 881 4594 1212 4672 
Q 1544 4750 1819 4750 
Q 2544 4750 2975 4387 
Q 3406 4025 3406 3419 
Q 3406 3131 3298 2873 
Q 3191 2616 2906 2266 
Q 2828 2175 2409 1742 
Q 1991 1309 1228 531 
z
" transform="scale(0.015625)"/>
       <path id="DejaVuSans-Bold-29" d="M 513 -844 
Q 913 -100 1113 609 
Q 1313 1319 1313 2009 
Q 1313 2700 1113 3408 
Q 913 4116 513 4856 
L 1441 4856 
Q 1916 4091 2145 3389 
Q 2375 2688 2375 2003 
Q 2375 1319 2147 623 
Q 1919 -72 1441 -844 
L 513 -844 
z
" transform="scale(0.015625)"/>
      </defs>
      <use xlink:href="#DejaVuSans-Bold-6a" transform="translate(0 0.765625)"/>
      <use xlink:href="#DejaVuSans-Bold-e4" transform="translate(34.277344 0.765625)"/>
      <use xlink:href="#DejaVuSans-Bold-68" transform="translate(101.757812 0.765625)"/>
      <use xlink:href="#DejaVuSans-Bold-72" transform="translate(172.949219 0.765625)"/>
      <use xlink:href="#DejaVuSans-Bold-6c" transform="translate(222.265625 0.765625)"/>
      <use xlink:href="#DejaVuSans-Bold-69" transform="translate(256.542969 0.765625)"/>
      <use xlink:href="#DejaVuSans-Bold-63" transform="translate(290.820312 0.765625)"/>
      <use xlink:href="#DejaVuSans-Bold-68" transform="translate(350.097656 0.765625)"/>
      <use xlink:href="#DejaVuSans-Bold-65" transform="translate(421.289062 0.765625)"/>
      <use xlink:href="#DejaVuSans-Bold-20" transform="translate(489.111328 0.765625)"/>
      <use xlink:href="#DejaVuSans-Bold-4d" transform="translate(523.925781 0.765625)"/>
      <use xlink:href="#DejaVuSans-Bold-61" transform="translate(623.4375 0.765625)"/>
      <use xlink:href="#DejaVuSans-Bold-73" transform="translate(690.917969 0.765625)"/>
      <use xlink:href="#DejaVuSans-Bold-73" transform="translate(750.439453 0.765625)"/>
      <use xlink:href="#DejaVuSans-Bold-65" transform="translate(809.960938 0.765625)"/>
      <use xlink:href="#DejaVuSans-Bold-6e" transform="translate(877.783203 0.765625)"/>
      <use xlink:href="#DejaVuSans-Bold-62" transform="translate(948.974609 0.765625)"/>
      <use xlink:href="#DejaVuSans-Bold-69" transform="translate(1020.556641 0.765625)"/>
      <use xlink:href="#DejaVuSans-Bold-6c" transform="translate(1054.833984 0.765625)"/>
      <use xlink:href="#DejaVuSans-Bold-61" transform="translate(1089.111328 0.765625)"/>
      <use xlink:href="#DejaVuSans-Bold-6e" transform="translate(1156.591797 0.765625)"/>
      <use xlink:href="#DejaVuSans-Bold-7a" transform="translate(1227.783203 0.765625)"/>
      <use xlink:href="#DejaVuSans-Bold-20" transform="translate(1285.986328 0.765625)"/>
      <use xlink:href="#DejaVuSans-Bold-28" transform="translate(1320.800781 0.765625)"/>
      <use xlink:href="#DejaVuSans-Bold-54" transform="translate(1366.503906 0.765625)"/>
      <use xlink:href="#DejaVuSans-Bold-6f" transform="translate(1434.716797 0.765625)"/>
      <use xlink:href="#DejaVuSans-Bold-6e" transform="translate(1503.417969 0.765625)"/>
      <use xlink:href="#DejaVuSans-Bold-6e" transform="translate(1574.609375 0.765625)"/>
      <use xlink:href="#DejaVuSans-Bold-65" transform="translate(1645.800781 0.765625)"/>
      <use xlink:href="#DejaVuSans-Bold-6e" transform="translate(1713.623047 0.765625)"/>
      <use xlink:href="#DejaVuSans-Bold-20" transform="translate(1784.814453 0.765625)"/>
      <use xlink:href="#DejaVuSans-Bold-70" transform="translate(1819.628906 0.765625)"/>
      <use xlink:href="#DejaVuSans-Bold-72" transform="translate(1891.210938 0.765625)"/>
      <use xlink:href="#DejaVuSans-Bold-6f" transform="translate(1940.527344 0.765625)"/>
      <use xlink:href="#DejaVuSans-Bold-20" transform="translate(2009.228516 0.765625)"/>
      <use xlink:href="#DejaVuSans-Bold-6d" transform="translate(2044.042969 0.765625)"/>
      <use xlink:href="#DejaVuSans-32" transform="translate(2149.199219 39.046875)scale(0.7)"/>
      <use xlink:href="#DejaVuSans-Bold-29" transform="translate(2196.469727 0.765625)"/>
     </g>
    </g>
   </g>
   <g id="matplotlib.axis_2"/>
   <g id="line2d_74">
    <path d="M 305.526986 345.917616 
L 305.526986 118.042 
" clip-path="url(#p9bb2df2614)" style="fill: none; stroke: #efcfbf; stroke-width: 1.5; stroke-linecap: square"/>
   </g>
   <g id="line2d_75">
    <path d="M 329.599137 345.917616 
L 329.599137 118.042 
" clip-path="url(#p9bb2df2614)" style="fill: none; stroke: #e8d6cc; stroke-width: 1.5; stroke-linecap: square"/>
   </g>
   <g id="line2d_76">
    <path d="M 363.906691 345.917616 
L 363.906691 118.042 
" clip-path="url(#p9bb2df2614)" style="fill: none; stroke: #dadce0; stroke-width: 1.5; stroke-linecap: square"/>
   </g>
   <g id="line2d_77">
    <path d="M 330.641632 345.917616 
L 330.641632 118.042 
" clip-path="url(#p9bb2df2614)" style="fill: none; stroke: #e7d7ce; stroke-width: 1.5; stroke-linecap: square"/>
   </g>
   <g id="line2d_78">
    <path d="M 338.792045 345.917616 
L 338.792045 118.042 
" clip-path="url(#p9bb2df2614)" style="fill: none; stroke: #e4d9d2; stroke-width: 1.5; stroke-linecap: square"/>
   </g>
   <g id="line2d_79">
    <path d="M 263.732425 345.917616 
L 263.732425 118.042 
" clip-path="url(#p9bb2df2614)" style="fill: none; stroke: #f6bea4; stroke-width: 1.5; stroke-linecap: square"/>
   </g>
   <g id="line2d_80">
    <path d="M 284.392775 345.917616 
L 284.392775 118.042 
" clip-path="url(#p9bb2df2614)" style="fill: none; stroke: #f3c7b1; stroke-width: 1.5; stroke-linecap: square"/>
   </g>
   <g id="line2d_81">
    <path d="M 350.828121 345.917616 
L 350.828121 118.042 
" clip-path="url(#p9bb2df2614)" style="fill: none; stroke: #dfdbd9; stroke-width: 1.5; stroke-linecap: square"/>
   </g>
   <g id="line2d_82">
    <path d="M 337.275689 345.917616 
L 337.275689 118.042 
" clip-path="url(#p9bb2df2614)" style="fill: none; stroke: #e4d9d2; stroke-width: 1.5; stroke-linecap: square"/>
   </g>
   <g id="line2d_83">
    <path d="M 290.742515 345.917616 
L 290.742515 118.042 
" clip-path="url(#p9bb2df2614)" style="fill: none; stroke: #f2cab5; stroke-width: 1.5; stroke-linecap: square"/>
   </g>
   <g id="line2d_84">
    <path d="M 299.556334 345.917616 
L 299.556334 118.042 
" clip-path="url(#p9bb2df2614)" style="fill: none; stroke: #f1cdba; stroke-width: 1.5; stroke-linecap: square"/>
   </g>
   <g id="line2d_85">
    <path d="M 238.807324 345.917616 
L 238.807324 118.042 
" clip-path="url(#p9bb2df2614)" style="fill: none; stroke: #f7b194; stroke-width: 1.5; stroke-linecap: square"/>
   </g>
   <g id="line2d_86">
    <path d="M 444.368329 345.917616 
L 444.368329 118.042 
" clip-path="url(#p9bb2df2614)" style="fill: none; stroke: #b3cdfb; stroke-width: 1.5; stroke-linecap: square"/>
   </g>
   <g id="line2d_87">
    <path d="M 389.305653 345.917616 
L 389.305653 118.042 
" clip-path="url(#p9bb2df2614)" style="fill: none; stroke: #cedaeb; stroke-width: 1.5; stroke-linecap: square"/>
   </g>
   <g id="line2d_88">
    <path d="M 358.599445 345.917616 
L 358.599445 118.042 
" clip-path="url(#p9bb2df2614)" style="fill: none; stroke: #dcdddd; stroke-width: 1.5; stroke-linecap: square"/>
   </g>
   <g id="line2d_89">
    <path d="M 388.73702 345.917616 
L 388.73702 118.042 
" clip-path="url(#p9bb2df2614)" style="fill: none; stroke: #cedaeb; stroke-width: 1.5; stroke-linecap: square"/>
   </g>
   <g id="line2d_90">
    <path d="M 315.857161 345.917616 
L 315.857161 118.042 
" clip-path="url(#p9bb2df2614)" style="fill: none; stroke: #ecd3c5; stroke-width: 1.5; stroke-linecap: square"/>
   </g>
   <g id="line2d_91">
    <path d="M 304.389719 345.917616 
L 304.389719 118.042 
" clip-path="url(#p9bb2df2614)" style="fill: none; stroke: #efcebd; stroke-width: 1.5; stroke-linecap: square"/>
   </g>
   <g id="line2d_92">
    <path d="M 299.840651 345.917616 
L 299.840651 118.042 
" clip-path="url(#p9bb2df2614)" style="fill: none; stroke: #f1cdba; stroke-width: 1.5; stroke-linecap: square"/>
   </g>
   <g id="line2d_93">
    <path d="M 349.690854 345.917616 
L 349.690854 118.042 
" clip-path="url(#p9bb2df2614)" style="fill: none; stroke: #dfdbd9; stroke-width: 1.5; stroke-linecap: square"/>
   </g>
   <g id="line2d_94">
    <path d="M 240.228907 345.917616 
L 240.228907 118.042 
" clip-path="url(#p9bb2df2614)" style="fill: none; stroke: #f7b194; stroke-width: 1.5; stroke-linecap: square"/>
   </g>
   <g id="line2d_95">
    <path d="M 361.916474 345.917616 
L 361.916474 118.042 
" clip-path="url(#p9bb2df2614)" style="fill: none; stroke: #dadce0; stroke-width: 1.5; stroke-linecap: square"/>
   </g>
   <g id="line2d_96">
    <path d="M 362.864196 345.917616 
L 362.864196 118.042 
" clip-path="url(#p9bb2df2614)" style="fill: none; stroke: #dadce0; stroke-width: 1.5; stroke-linecap: square"/>
   </g>
   <g id="line2d_97">
    <path d="M 326.945514 345.917616 
L 326.945514 118.042 
" clip-path="url(#p9bb2df2614)" style="fill: none; stroke: #e9d5cb; stroke-width: 1.5; stroke-linecap: square"/>
   </g>
   <g id="line2d_98">
    <path d="M 428.730908 345.917616 
L 428.730908 118.042 
" clip-path="url(#p9bb2df2614)" style="fill: none; stroke: #bbd1f8; stroke-width: 1.5; stroke-linecap: square"/>
   </g>
   <g id="line2d_99">
    <path d="M 395.655394 345.917616 
L 395.655394 118.042 
" clip-path="url(#p9bb2df2614)" style="fill: none; stroke: #ccd9ed; stroke-width: 1.5; stroke-linecap: square"/>
   </g>
   <g id="line2d_100">
    <path d="M 335.948878 345.917616 
L 335.948878 118.042 
" clip-path="url(#p9bb2df2614)" style="fill: none; stroke: #e5d8d1; stroke-width: 1.5; stroke-linecap: square"/>
   </g>
   <g id="line2d_101">
    <path d="M 351.965388 345.917616 
L 351.965388 118.042 
" clip-path="url(#p9bb2df2614)" style="fill: none; stroke: #dedcdb; stroke-width: 1.5; stroke-linecap: square"/>
   </g>
   <g id="line2d_102">
    <path d="M 340.308401 345.917616 
L 340.308401 118.042 
" clip-path="url(#p9bb2df2614)" style="fill: none; stroke: #e3d9d3; stroke-width: 1.5; stroke-linecap: square"/>
   </g>
   <g id="line2d_103">
    <path d="M 239.186413 345.917616 
L 239.186413 118.042 
" clip-path="url(#p9bb2df2614)" style="fill: none; stroke: #f7b194; stroke-width: 1.5; stroke-linecap: square"/>
   </g>
   <g id="line2d_104">
    <path d="M 301.736096 345.917616 
L 301.736096 118.042 
" clip-path="url(#p9bb2df2614)" style="fill: none; stroke: #f0cdbb; stroke-width: 1.5; stroke-linecap: square"/>
   </g>
   <g id="line2d_105">
    <path d="M 359.736712 345.917616 
L 359.736712 118.042 
" clip-path="url(#p9bb2df2614)" style="fill: none; stroke: #dbdcde; stroke-width: 1.5; stroke-linecap: square"/>
   </g>
   <g id="line2d_106">
    <path d="M 302.30473 345.917616 
L 302.30473 118.042 
" clip-path="url(#p9bb2df2614)" style="fill: none; stroke: #f0cdbb; stroke-width: 1.5; stroke-linecap: square"/>
   </g>
   <g id="line2d_107">
    <path d="M 287.330715 345.917616 
L 287.330715 118.042 
" clip-path="url(#p9bb2df2614)" style="fill: none; stroke: #f3c8b2; stroke-width: 1.5; stroke-linecap: square"/>
   </g>
   <g id="line2d_108">
    <path d="M 288.752298 345.917616 
L 288.752298 118.042 
" clip-path="url(#p9bb2df2614)" style="fill: none; stroke: #f2c9b4; stroke-width: 1.5; stroke-linecap: square"/>
   </g>
   <g id="line2d_109">
    <path d="M 267.144226 345.917616 
L 267.144226 118.042 
" clip-path="url(#p9bb2df2614)" style="fill: none; stroke: #f6bfa6; stroke-width: 1.5; stroke-linecap: square"/>
   </g>
   <g id="line2d_110">
    <path d="M 296.334078 345.917616 
L 296.334078 118.042 
" clip-path="url(#p9bb2df2614)" style="fill: none; stroke: #f1ccb8; stroke-width: 1.5; stroke-linecap: square"/>
   </g>
   <g id="line2d_111">
    <path d="M 262.405613 345.917616 
L 262.405613 118.042 
" clip-path="url(#p9bb2df2614)" style="fill: none; stroke: #f6bda2; stroke-width: 1.5; stroke-linecap: square"/>
   </g>
   <g id="line2d_112">
    <path d="M 231.130771 345.917616 
L 231.130771 118.042 
" clip-path="url(#p9bb2df2614)" style="fill: none; stroke: #f7ac8e; stroke-width: 1.5; stroke-linecap: square"/>
   </g>
   <g id="line2d_113">
    <path d="M 250.559082 345.917616 
L 250.559082 118.042 
" clip-path="url(#p9bb2df2614)" style="fill: none; stroke: #f7b79b; stroke-width: 1.5; stroke-linecap: square"/>
   </g>
   <g id="line2d_114">
    <path d="M 302.399502 345.917616 
L 302.399502 118.042 
" clip-path="url(#p9bb2df2614)" style="fill: none; stroke: #f0cdbb; stroke-width: 1.5; stroke-linecap: square"/>
   </g>
   <g id="line2d_115">
    <path d="M 251.791122 345.917616 
L 251.791122 118.042 
" clip-path="url(#p9bb2df2614)" style="fill: none; stroke: #f7b89c; stroke-width: 1.5; stroke-linecap: square"/>
   </g>
   <g id="line2d_116">
    <path d="M 313.013994 345.917616 
L 313.013994 118.042 
" clip-path="url(#p9bb2df2614)" style="fill: none; stroke: #edd2c3; stroke-width: 1.5; stroke-linecap: square"/>
   </g>
   <g id="line2d_117">
    <path d="M 278.327351 345.917616 
L 278.327351 118.042 
" clip-path="url(#p9bb2df2614)" style="fill: none; stroke: #f4c5ad; stroke-width: 1.5; stroke-linecap: square"/>
   </g>
   <g id="line2d_118">
    <path d="M 300.693601 345.917616 
L 300.693601 118.042 
" clip-path="url(#p9bb2df2614)" style="fill: none; stroke: #f0cdbb; stroke-width: 1.5; stroke-linecap: square"/>
   </g>
   <g id="line2d_119">
    <path d="M 240.134135 345.917616 
L 240.134135 118.042 
" clip-path="url(#p9bb2df2614)" style="fill: none; stroke: #f7b194; stroke-width: 1.5; stroke-linecap: square"/>
   </g>
   <g id="line2d_120">
    <path d="M 275.105095 345.917616 
L 275.105095 118.042 
" clip-path="url(#p9bb2df2614)" style="fill: none; stroke: #f5c2aa; stroke-width: 1.5; stroke-linecap: square"/>
   </g>
   <g id="line2d_121">
    <path d="M 296.713167 345.917616 
L 296.713167 118.042 
" clip-path="url(#p9bb2df2614)" style="fill: none; stroke: #f1ccb8; stroke-width: 1.5; stroke-linecap: square"/>
   </g>
   <g id="line2d_122">
    <path d="M 340.308401 345.917616 
L 340.308401 118.042 
" clip-path="url(#p9bb2df2614)" style="fill: none; stroke: #e3d9d3; stroke-width: 1.5; stroke-linecap: square"/>
   </g>
   <g id="line2d_123">
    <path d="M 291.78501 345.917616 
L 291.78501 118.042 
" clip-path="url(#p9bb2df2614)" style="fill: none; stroke: #f2cab5; stroke-width: 1.5; stroke-linecap: square"/>
   </g>
   <g id="line2d_124">
    <path d="M 99.586891 345.917616 
L 99.586891 118.042 
" clip-path="url(#p9bb2df2614)" style="fill: none; stroke: #d44e41; stroke-width: 1.5; stroke-linecap: square"/>
   </g>
   <g id="line2d_125">
    <path d="M 294.72295 345.917616 
L 294.72295 118.042 
" clip-path="url(#p9bb2df2614)" style="fill: none; stroke: #f2cbb7; stroke-width: 1.5; stroke-linecap: square"/>
   </g>
   <g id="line2d_126">
    <path d="M 259.278129 345.917616 
L 259.278129 118.042 
" clip-path="url(#p9bb2df2614)" style="fill: none; stroke: #f7bca1; stroke-width: 1.5; stroke-linecap: square"/>
   </g>
   <g id="line2d_127">
    <path d="M 158.53523 345.917616 
L 158.53523 118.042 
" clip-path="url(#p9bb2df2614)" style="fill: none; stroke: #eb7d62; stroke-width: 1.5; stroke-linecap: square"/>
   </g>
   <g id="line2d_128">
    <path d="M 227.529426 345.917616 
L 227.529426 118.042 
" clip-path="url(#p9bb2df2614)" style="fill: none; stroke: #f7aa8c; stroke-width: 1.5; stroke-linecap: square"/>
   </g>
   <g id="line2d_129">
    <path d="M 238.049146 345.917616 
L 238.049146 118.042 
" clip-path="url(#p9bb2df2614)" style="fill: none; stroke: #f7b093; stroke-width: 1.5; stroke-linecap: square"/>
   </g>
   <g id="line2d_130">
    <path d="M 242.124352 345.917616 
L 242.124352 118.042 
" clip-path="url(#p9bb2df2614)" style="fill: none; stroke: #f7b396; stroke-width: 1.5; stroke-linecap: square"/>
   </g>
   <g id="line2d_131">
    <path d="M 281.075746 345.917616 
L 281.075746 118.042 
" clip-path="url(#p9bb2df2614)" style="fill: none; stroke: #f4c6af; stroke-width: 1.5; stroke-linecap: square"/>
   </g>
   <g id="line2d_132">
    <path d="M 238.333462 345.917616 
L 238.333462 118.042 
" clip-path="url(#p9bb2df2614)" style="fill: none; stroke: #f7b093; stroke-width: 1.5; stroke-linecap: square"/>
   </g>
   <g id="line2d_133">
    <path d="M 208.764521 345.917616 
L 208.764521 118.042 
" clip-path="url(#p9bb2df2614)" style="fill: none; stroke: #f59f80; stroke-width: 1.5; stroke-linecap: square"/>
   </g>
   <g id="line2d_134">
    <path d="M 308.370154 345.917616 
L 308.370154 118.042 
" clip-path="url(#p9bb2df2614)" style="fill: none; stroke: #eed0c0; stroke-width: 1.5; stroke-linecap: square"/>
   </g>
   <g id="line2d_135">
    <path d="M 345.141786 345.917616 
L 345.141786 118.042 
" clip-path="url(#p9bb2df2614)" style="fill: none; stroke: #e1dad6; stroke-width: 1.5; stroke-linecap: square"/>
   </g>
   <g id="line2d_136">
    <path d="M 197.297079 345.917616 
L 197.297079 118.042 
" clip-path="url(#p9bb2df2614)" style="fill: none; stroke: #f4987a; stroke-width: 1.5; stroke-linecap: square"/>
   </g>
   <g id="line2d_137">
    <path d="M 237.006651 345.917616 
L 237.006651 118.042 
" clip-path="url(#p9bb2df2614)" style="fill: none; stroke: #f7b093; stroke-width: 1.5; stroke-linecap: square"/>
   </g>
   <g id="line2d_138">
    <path d="M 183.649875 345.917616 
L 183.649875 118.042 
" clip-path="url(#p9bb2df2614)" style="fill: none; stroke: #f18f71; stroke-width: 1.5; stroke-linecap: square"/>
   </g>
   <g id="line2d_139">
    <path d="M 170.666077 345.917616 
L 170.666077 118.042 
" clip-path="url(#p9bb2df2614)" style="fill: none; stroke: #ee8669; stroke-width: 1.5; stroke-linecap: square"/>
   </g>
   <g id="line2d_140">
    <path d="M 292.258871 345.917616 
L 292.258871 118.042 
" clip-path="url(#p9bb2df2614)" style="fill: none; stroke: #f2cab5; stroke-width: 1.5; stroke-linecap: square"/>
   </g>
   <g id="line2d_141">
    <path d="M 264.774919 345.917616 
L 264.774919 118.042 
" clip-path="url(#p9bb2df2614)" style="fill: none; stroke: #f6bea4; stroke-width: 1.5; stroke-linecap: square"/>
   </g>
   <g id="line2d_142">
    <path d="M 293.396138 345.917616 
L 293.396138 118.042 
" clip-path="url(#p9bb2df2614)" style="fill: none; stroke: #f2cbb7; stroke-width: 1.5; stroke-linecap: square"/>
   </g>
   <g id="line2d_143">
    <path d="M 42.154909 345.917616 
L 42.154909 118.042 
" clip-path="url(#p9bb2df2614)" style="fill: none; stroke: #b40426; stroke-width: 1.5; stroke-linecap: square"/>
   </g>
   <g id="line2d_144">
    <path d="M 149.247549 345.917616 
L 149.247549 118.042 
" clip-path="url(#p9bb2df2614)" style="fill: none; stroke: #e8765c; stroke-width: 1.5; stroke-linecap: square"/>
   </g>
   <g id="line2d_145">
    <path d="M 444.368329 345.917616 
L 444.368329 118.042 
" clip-path="url(#p9bb2df2614)" style="fill: none; stroke: #b3cdfb; stroke-width: 3; stroke-linecap: square"/>
   </g>
   <g id="text_9">
    <!-- 1965 -->
    <g style="fill: #b3cdfb" transform="translate(441.172741 74.0251)rotate(-45)scale(0.12 -0.12)">
     <defs>
      <path id="DejaVuSans-Bold-39" d="M 641 103 
L 641 966 
Q 928 831 1190 764 
Q 1453 697 1709 697 
Q 2247 697 2547 995 
Q 2847 1294 2900 1881 
Q 2688 1725 2447 1647 
Q 2206 1569 1925 1569 
Q 1209 1569 770 1986 
Q 331 2403 331 3084 
Q 331 3838 820 4291 
Q 1309 4744 2131 4744 
Q 3044 4744 3544 4128 
Q 4044 3513 4044 2388 
Q 4044 1231 3459 570 
Q 2875 -91 1856 -91 
Q 1528 -91 1228 -42 
Q 928 6 641 103 
z
M 2125 2350 
Q 2441 2350 2600 2554 
Q 2759 2759 2759 3169 
Q 2759 3575 2600 3781 
Q 2441 3988 2125 3988 
Q 1809 3988 1650 3781 
Q 1491 3575 1491 3169 
Q 1491 2759 1650 2554 
Q 1809 2350 2125 2350 
z
" transform="scale(0.015625)"/>
      <path id="DejaVuSans-Bold-36" d="M 2316 2303 
Q 2000 2303 1842 2098 
Q 1684 1894 1684 1484 
Q 1684 1075 1842 870 
Q 2000 666 2316 666 
Q 2634 666 2792 870 
Q 2950 1075 2950 1484 
Q 2950 1894 2792 2098 
Q 2634 2303 2316 2303 
z
M 3803 4544 
L 3803 3681 
Q 3506 3822 3243 3889 
Q 2981 3956 2731 3956 
Q 2194 3956 1894 3657 
Q 1594 3359 1544 2772 
Q 1750 2925 1990 3001 
Q 2231 3078 2516 3078 
Q 3231 3078 3670 2659 
Q 4109 2241 4109 1563 
Q 4109 813 3618 361 
Q 3128 -91 2303 -91 
Q 1394 -91 895 523 
Q 397 1138 397 2266 
Q 397 3422 980 4083 
Q 1563 4744 2578 4744 
Q 2900 4744 3203 4694 
Q 3506 4644 3803 4544 
z
" transform="scale(0.015625)"/>
      <path id="DejaVuSans-Bold-35" d="M 678 4666 
L 3669 4666 
L 3669 3781 
L 1638 3781 
L 1638 3059 
Q 1775 3097 1914 3117 
Q 2053 3138 2203 3138 
Q 3056 3138 3531 2711 
Q 4006 2284 4006 1522 
Q 4006 766 3489 337 
Q 2972 -91 2053 -91 
Q 1656 -91 1267 -14 
Q 878 63 494 219 
L 494 1166 
Q 875 947 1217 837 
Q 1559 728 1863 728 
Q 2300 728 2551 942 
Q 2803 1156 2803 1522 
Q 2803 1891 2551 2103 
Q 2300 2316 1863 2316 
Q 1603 2316 1309 2248 
Q 1016 2181 678 2041 
L 678 4666 
z
" transform="scale(0.015625)"/>
     </defs>
     <use xlink:href="#DejaVuSans-Bold-31"/>
     <use xlink:href="#DejaVuSans-Bold-39" x="69.580078"/>
     <use xlink:href="#DejaVuSans-Bold-36" x="139.160156"/>
     <use xlink:href="#DejaVuSans-Bold-35" x="208.740234"/>
    </g>
   </g>
   <g id="line2d_146">
    <path d="M 428.730908 345.917616 
L 428.730908 118.042 
" clip-path="url(#p9bb2df2614)" style="fill: none; stroke: #bbd1f8; stroke-width: 3; stroke-linecap: square"/>
   </g>
   <g id="text_10">
    <!-- 1977 -->
    <g style="fill: #bbd1f8" transform="translate(427.255437 74.0251)rotate(-45)scale(0.12 -0.12)">
     <defs>
      <path id="DejaVuSans-Bold-37" d="M 428 4666 
L 3944 4666 
L 3944 3988 
L 2125 0 
L 953 0 
L 2675 3781 
L 428 3781 
L 428 4666 
z
" transform="scale(0.015625)"/>
     </defs>
     <use xlink:href="#DejaVuSans-Bold-31"/>
     <use xlink:href="#DejaVuSans-Bold-39" x="69.580078"/>
     <use xlink:href="#DejaVuSans-Bold-37" x="139.160156"/>
     <use xlink:href="#DejaVuSans-Bold-37" x="208.740234"/>
    </g>
   </g>
   <g id="line2d_147">
    <path d="M 99.586891 345.917616 
L 99.586891 118.042 
" clip-path="url(#p9bb2df2614)" style="fill: none; stroke: #d44e41; stroke-width: 4; stroke-linecap: square"/>
   </g>
   <g id="text_11">
    <!-- 2003 -->
    <g style="fill: #d44e41" transform="translate(99.626012 74.756051)rotate(-45)scale(0.24 -0.24)">
     <use xlink:href="#DejaVuSans-Bold-32"/>
     <use xlink:href="#DejaVuSans-Bold-30" x="69.580078"/>
     <use xlink:href="#DejaVuSans-Bold-30" x="139.160156"/>
     <use xlink:href="#DejaVuSans-Bold-33" x="208.740234"/>
    </g>
   </g>
   <g id="line2d_148">
    <path d="M 158.53523 345.917616 
L 158.53523 118.042 
" clip-path="url(#p9bb2df2614)" style="fill: none; stroke: #eb7d62; stroke-width: 3; stroke-linecap: square"/>
   </g>
   <g id="text_12">
    <!-- 2006 -->
    <g style="fill: #eb7d62" transform="translate(155.074279 74.0251)rotate(-45)scale(0.12 -0.12)">
     <use xlink:href="#DejaVuSans-Bold-32"/>
     <use xlink:href="#DejaVuSans-Bold-30" x="69.580078"/>
     <use xlink:href="#DejaVuSans-Bold-30" x="139.160156"/>
     <use xlink:href="#DejaVuSans-Bold-36" x="208.740234"/>
    </g>
   </g>
   <g id="line2d_149">
    <path d="M 170.666077 345.917616 
L 170.666077 118.042 
" clip-path="url(#p9bb2df2614)" style="fill: none; stroke: #ee8669; stroke-width: 3; stroke-linecap: square"/>
   </g>
   <g id="text_13">
    <!-- 2018 -->
    <g style="fill: #ee8669" transform="translate(168.759392 74.0251)rotate(-45)scale(0.12 -0.12)">
     <defs>
      <path id="DejaVuSans-Bold-38" d="M 2228 2088 
Q 1891 2088 1709 1903 
Q 1528 1719 1528 1375 
Q 1528 1031 1709 848 
Q 1891 666 2228 666 
Q 2563 666 2741 848 
Q 2919 1031 2919 1375 
Q 2919 1722 2741 1905 
Q 2563 2088 2228 2088 
z
M 1350 2484 
Q 925 2613 709 2878 
Q 494 3144 494 3541 
Q 494 4131 934 4440 
Q 1375 4750 2228 4750 
Q 3075 4750 3515 4442 
Q 3956 4134 3956 3541 
Q 3956 3144 3739 2878 
Q 3522 2613 3097 2484 
Q 3572 2353 3814 2058 
Q 4056 1763 4056 1313 
Q 4056 619 3595 264 
Q 3134 -91 2228 -91 
Q 1319 -91 855 264 
Q 391 619 391 1313 
Q 391 1763 633 2058 
Q 875 2353 1350 2484 
z
M 1631 3419 
Q 1631 3141 1786 2991 
Q 1941 2841 2228 2841 
Q 2509 2841 2662 2991 
Q 2816 3141 2816 3419 
Q 2816 3697 2662 3845 
Q 2509 3994 2228 3994 
Q 1941 3994 1786 3844 
Q 1631 3694 1631 3419 
z
" transform="scale(0.015625)"/>
     </defs>
     <use xlink:href="#DejaVuSans-Bold-32"/>
     <use xlink:href="#DejaVuSans-Bold-30" x="69.580078"/>
     <use xlink:href="#DejaVuSans-Bold-31" x="139.160156"/>
     <use xlink:href="#DejaVuSans-Bold-38" x="208.740234"/>
    </g>
   </g>
   <g id="line2d_150">
    <path d="M 42.154909 345.917616 
L 42.154909 118.042 
" clip-path="url(#p9bb2df2614)" style="fill: none; stroke: #b40426; stroke-width: 4; stroke-linecap: square"/>
   </g>
   <g id="text_14">
    <!-- 2022 -->
    <g style="fill: #b40426" transform="translate(39.322431 74.756051)rotate(-45)scale(0.24 -0.24)">
     <use xlink:href="#DejaVuSans-Bold-32"/>
     <use xlink:href="#DejaVuSans-Bold-30" x="69.580078"/>
     <use xlink:href="#DejaVuSans-Bold-32" x="139.160156"/>
     <use xlink:href="#DejaVuSans-Bold-32" x="208.740234"/>
    </g>
   </g>
   <g id="line2d_151">
    <path d="M 149.247549 345.917616 
L 149.247549 118.042 
" clip-path="url(#p9bb2df2614)" style="fill: none; stroke: #e8765c; stroke-width: 3; stroke-linecap: square"/>
   </g>
   <g id="text_15">
    <!-- 2023 -->
    <g style="fill: #e8765c" transform="translate(143.900631 74.0251)rotate(-45)scale(0.12 -0.12)">
     <use xlink:href="#DejaVuSans-Bold-32"/>
     <use xlink:href="#DejaVuSans-Bold-30" x="69.580078"/>
     <use xlink:href="#DejaVuSans-Bold-32" x="139.160156"/>
     <use xlink:href="#DejaVuSans-Bold-33" x="208.740234"/>
    </g>
   </g>
   <g id="axes_2">
    <g id="patch_5">
     <path d="M 10.7 118.042 
L 702.708 118.042 
L 702.708 118.042 
L 10.7 118.042 
z
" style="fill: #ffffff"/>
    </g>
    <g id="matplotlib.axis_3">
     <g id="xtick_74">
      <g id="line2d_152">
       <defs>
        <path id="mfc13b2efc0" d="M 0 0 
L 0 -10 
" style="stroke: #000000; stroke-width: 2.5"/>
       </defs>
       <g>
        <use xlink:href="#mfc13b2efc0" x="110.106929" y="118.042" style="stroke: #000000; stroke-width: 2.5"/>
       </g>
      </g>
      <g id="text_16">
       <!-- 99% -->
       <g transform="translate(86.170991 100.382625)scale(0.2 -0.2)">
        <defs>
         <path id="DejaVuSans-Bold-25" d="M 4959 1925 
Q 4738 1925 4616 1733 
Q 4494 1541 4494 1184 
Q 4494 825 4614 633 
Q 4734 441 4959 441 
Q 5184 441 5303 633 
Q 5422 825 5422 1184 
Q 5422 1541 5301 1733 
Q 5181 1925 4959 1925 
z
M 4959 2450 
Q 5541 2450 5875 2112 
Q 6209 1775 6209 1184 
Q 6209 594 5875 251 
Q 5541 -91 4959 -91 
Q 4378 -91 4042 251 
Q 3706 594 3706 1184 
Q 3706 1772 4042 2111 
Q 4378 2450 4959 2450 
z
M 2094 -91 
L 1403 -91 
L 4319 4750 
L 5013 4750 
L 2094 -91 
z
M 1453 4750 
Q 2034 4750 2367 4411 
Q 2700 4072 2700 3481 
Q 2700 2891 2367 2550 
Q 2034 2209 1453 2209 
Q 872 2209 539 2550 
Q 206 2891 206 3481 
Q 206 4072 539 4411 
Q 872 4750 1453 4750 
z
M 1453 4225 
Q 1228 4225 1106 4031 
Q 984 3838 984 3481 
Q 984 3122 1106 2926 
Q 1228 2731 1453 2731 
Q 1678 2731 1798 2926 
Q 1919 3122 1919 3481 
Q 1919 3838 1797 4031 
Q 1675 4225 1453 4225 
z
" transform="scale(0.015625)"/>
        </defs>
        <use xlink:href="#DejaVuSans-Bold-39"/>
        <use xlink:href="#DejaVuSans-Bold-39" x="69.580078"/>
        <use xlink:href="#DejaVuSans-Bold-25" x="139.160156"/>
       </g>
      </g>
     </g>
     <g id="xtick_75">
      <g id="line2d_153">
       <g>
        <use xlink:href="#mfc13b2efc0" x="173.314424" y="118.042" style="stroke: #000000; stroke-width: 2.5"/>
       </g>
      </g>
      <g id="text_17">
       <!-- 90% -->
       <g transform="translate(149.378487 100.382625)scale(0.2 -0.2)">
        <use xlink:href="#DejaVuSans-Bold-39"/>
        <use xlink:href="#DejaVuSans-Bold-30" x="69.580078"/>
        <use xlink:href="#DejaVuSans-Bold-25" x="139.160156"/>
       </g>
      </g>
     </g>
     <g id="xtick_76">
      <g id="line2d_154">
       <g>
        <use xlink:href="#mfc13b2efc0" x="287.859303" y="118.042" style="stroke: #000000; stroke-width: 2.5"/>
       </g>
      </g>
      <g id="text_18">
       <!-- Durchschnitt -->
       <g transform="translate(215.356178 100.382625)scale(0.2 -0.2)">
        <defs>
         <path id="DejaVuSans-Bold-44" d="M 1791 3756 
L 1791 909 
L 2222 909 
Q 2959 909 3348 1275 
Q 3738 1641 3738 2338 
Q 3738 3031 3350 3393 
Q 2963 3756 2222 3756 
L 1791 3756 
z
M 588 4666 
L 1856 4666 
Q 2919 4666 3439 4514 
Q 3959 4363 4331 4000 
Q 4659 3684 4818 3271 
Q 4978 2859 4978 2338 
Q 4978 1809 4818 1395 
Q 4659 981 4331 666 
Q 3956 303 3431 151 
Q 2906 0 1856 0 
L 588 0 
L 588 4666 
z
" transform="scale(0.015625)"/>
         <path id="DejaVuSans-Bold-75" d="M 500 1363 
L 500 3500 
L 1625 3500 
L 1625 3150 
Q 1625 2866 1622 2436 
Q 1619 2006 1619 1863 
Q 1619 1441 1641 1255 
Q 1663 1069 1716 984 
Q 1784 875 1895 815 
Q 2006 756 2150 756 
Q 2500 756 2700 1025 
Q 2900 1294 2900 1772 
L 2900 3500 
L 4019 3500 
L 4019 0 
L 2900 0 
L 2900 506 
Q 2647 200 2364 54 
Q 2081 -91 1741 -91 
Q 1134 -91 817 281 
Q 500 653 500 1363 
z
" transform="scale(0.015625)"/>
         <path id="DejaVuSans-Bold-74" d="M 1759 4494 
L 1759 3500 
L 2913 3500 
L 2913 2700 
L 1759 2700 
L 1759 1216 
Q 1759 972 1856 886 
Q 1953 800 2241 800 
L 2816 800 
L 2816 0 
L 1856 0 
Q 1194 0 917 276 
Q 641 553 641 1216 
L 641 2700 
L 84 2700 
L 84 3500 
L 641 3500 
L 641 4494 
L 1759 4494 
z
" transform="scale(0.015625)"/>
        </defs>
        <use xlink:href="#DejaVuSans-Bold-44"/>
        <use xlink:href="#DejaVuSans-Bold-75" x="83.007812"/>
        <use xlink:href="#DejaVuSans-Bold-72" x="154.199219"/>
        <use xlink:href="#DejaVuSans-Bold-63" x="203.515625"/>
        <use xlink:href="#DejaVuSans-Bold-68" x="262.792969"/>
        <use xlink:href="#DejaVuSans-Bold-73" x="333.984375"/>
        <use xlink:href="#DejaVuSans-Bold-63" x="393.505859"/>
        <use xlink:href="#DejaVuSans-Bold-68" x="452.783203"/>
        <use xlink:href="#DejaVuSans-Bold-6e" x="523.974609"/>
        <use xlink:href="#DejaVuSans-Bold-69" x="595.166016"/>
        <use xlink:href="#DejaVuSans-Bold-74" x="629.443359"/>
        <use xlink:href="#DejaVuSans-Bold-74" x="677.246094"/>
       </g>
      </g>
     </g>
     <g id="xtick_77">
      <g id="line2d_155">
       <g>
        <use xlink:href="#mfc13b2efc0" x="402.903512" y="118.042" style="stroke: #000000; stroke-width: 2.5"/>
       </g>
      </g>
      <g id="text_19">
       <!-- 90% -->
       <g transform="translate(378.967575 100.382625)scale(0.2 -0.2)">
        <use xlink:href="#DejaVuSans-Bold-39"/>
        <use xlink:href="#DejaVuSans-Bold-30" x="69.580078"/>
        <use xlink:href="#DejaVuSans-Bold-25" x="139.160156"/>
       </g>
      </g>
     </g>
     <g id="xtick_78">
      <g id="line2d_156">
       <g>
        <use xlink:href="#mfc13b2efc0" x="468.302264" y="118.042" style="stroke: #000000; stroke-width: 2.5"/>
       </g>
      </g>
      <g id="text_20">
       <!-- 99% -->
       <g transform="translate(444.366326 100.382625)scale(0.2 -0.2)">
        <use xlink:href="#DejaVuSans-Bold-39"/>
        <use xlink:href="#DejaVuSans-Bold-39" x="69.580078"/>
        <use xlink:href="#DejaVuSans-Bold-25" x="139.160156"/>
       </g>
      </g>
     </g>
    </g>
    <g id="matplotlib.axis_4"/>
    <g id="patch_6">
     <path d="M 10.7 118.042 
L 702.708 118.042 
" style="fill: none; stroke: #000000; stroke-width: 0.8; stroke-linejoin: miter; stroke-linecap: square"/>
    </g>
   </g>
   <g id="patch_7">
    <path d="M 10.7 345.917616 
L 10.7 118.042 
" style="fill: none"/>
   </g>
   <g id="patch_8">
    <path d="M 702.708 345.917616 
L 702.708 118.042 
" style="fill: none"/>
   </g>
   <g id="patch_9">
    <path d="M 10.7 345.917616 
L 702.708 345.917616 
" style="fill: none; stroke: #000000; stroke-width: 0.8; stroke-linejoin: miter; stroke-linecap: square"/>
   </g>
   <g id="patch_10">
    <path d="M 10.7 118.042 
L 702.708 118.042 
" style="fill: none; stroke: #000000; stroke-width: 0.8; stroke-linejoin: miter; stroke-linecap: square"/>
   </g>
   <g id="text_21">
    <!-- n=71 Jahre -->
    <g transform="translate(669.464315 293.108087)rotate(-90)scale(0.2 -0.2)">
     <defs>
      <path id="DejaVuSans-Bold-3d" d="M 678 3084 
L 4684 3084 
L 4684 2350 
L 678 2350 
L 678 3084 
z
M 678 1663 
L 4684 1663 
L 4684 922 
L 678 922 
L 678 1663 
z
" transform="scale(0.015625)"/>
      <path id="DejaVuSans-Bold-4a" d="M 588 4666 
L 1791 4666 
L 1791 453 
Q 1791 -419 1317 -850 
Q 844 -1281 -116 -1281 
L -359 -1281 
L -359 -372 
L -172 -372 
Q 203 -372 395 -162 
Q 588 47 588 453 
L 588 4666 
z
" transform="scale(0.015625)"/>
     </defs>
     <use xlink:href="#DejaVuSans-Bold-6e"/>
     <use xlink:href="#DejaVuSans-Bold-3d" x="71.191406"/>
     <use xlink:href="#DejaVuSans-Bold-37" x="154.980469"/>
     <use xlink:href="#DejaVuSans-Bold-31" x="224.560547"/>
     <use xlink:href="#DejaVuSans-Bold-20" x="294.140625"/>
     <use xlink:href="#DejaVuSans-Bold-4a" x="328.955078"/>
     <use xlink:href="#DejaVuSans-Bold-61" x="366.162109"/>
     <use xlink:href="#DejaVuSans-Bold-68" x="433.642578"/>
     <use xlink:href="#DejaVuSans-Bold-72" x="504.833984"/>
     <use xlink:href="#DejaVuSans-Bold-65" x="554.150391"/>
    </g>
    <!-- (1953-2023) -->
    <g transform="translate(691.85994 293.108087)rotate(-90)scale(0.2 -0.2)">
     <defs>
      <path id="DejaVuSans-Bold-2d" d="M 347 2297 
L 2309 2297 
L 2309 1388 
L 347 1388 
L 347 2297 
z
" transform="scale(0.015625)"/>
     </defs>
     <use xlink:href="#DejaVuSans-Bold-28"/>
     <use xlink:href="#DejaVuSans-Bold-31" x="45.703125"/>
     <use xlink:href="#DejaVuSans-Bold-39" x="115.283203"/>
     <use xlink:href="#DejaVuSans-Bold-35" x="184.863281"/>
     <use xlink:href="#DejaVuSans-Bold-33" x="254.443359"/>
     <use xlink:href="#DejaVuSans-Bold-2d" x="324.023438"/>
     <use xlink:href="#DejaVuSans-Bold-32" x="365.527344"/>
     <use xlink:href="#DejaVuSans-Bold-30" x="435.107422"/>
     <use xlink:href="#DejaVuSans-Bold-32" x="504.6875"/>
     <use xlink:href="#DejaVuSans-Bold-33" x="574.267578"/>
     <use xlink:href="#DejaVuSans-Bold-29" x="643.847656"/>
    </g>
   </g>
   <g id="text_22">
    <!-- Gletscher gewinnt Masse -->
    <g style="fill: #7a9df8" transform="translate(385.135674 428.089972)scale(0.22 -0.22)">
     <defs>
      <path id="DejaVuSans-47" d="M 3809 666 
L 3809 1919 
L 2778 1919 
L 2778 2438 
L 4434 2438 
L 4434 434 
Q 4069 175 3628 42 
Q 3188 -91 2688 -91 
Q 1594 -91 976 548 
Q 359 1188 359 2328 
Q 359 3472 976 4111 
Q 1594 4750 2688 4750 
Q 3144 4750 3555 4637 
Q 3966 4525 4313 4306 
L 4313 3634 
Q 3963 3931 3569 4081 
Q 3175 4231 2741 4231 
Q 1884 4231 1454 3753 
Q 1025 3275 1025 2328 
Q 1025 1384 1454 906 
Q 1884 428 2741 428 
Q 3075 428 3337 486 
Q 3600 544 3809 666 
z
" transform="scale(0.015625)"/>
      <path id="DejaVuSans-6c" d="M 603 4863 
L 1178 4863 
L 1178 0 
L 603 0 
L 603 4863 
z
" transform="scale(0.015625)"/>
      <path id="DejaVuSans-65" d="M 3597 1894 
L 3597 1613 
L 953 1613 
Q 991 1019 1311 708 
Q 1631 397 2203 397 
Q 2534 397 2845 478 
Q 3156 559 3463 722 
L 3463 178 
Q 3153 47 2828 -22 
Q 2503 -91 2169 -91 
Q 1331 -91 842 396 
Q 353 884 353 1716 
Q 353 2575 817 3079 
Q 1281 3584 2069 3584 
Q 2775 3584 3186 3129 
Q 3597 2675 3597 1894 
z
M 3022 2063 
Q 3016 2534 2758 2815 
Q 2500 3097 2075 3097 
Q 1594 3097 1305 2825 
Q 1016 2553 972 2059 
L 3022 2063 
z
" transform="scale(0.015625)"/>
      <path id="DejaVuSans-74" d="M 1172 4494 
L 1172 3500 
L 2356 3500 
L 2356 3053 
L 1172 3053 
L 1172 1153 
Q 1172 725 1289 603 
Q 1406 481 1766 481 
L 2356 481 
L 2356 0 
L 1766 0 
Q 1100 0 847 248 
Q 594 497 594 1153 
L 594 3053 
L 172 3053 
L 172 3500 
L 594 3500 
L 594 4494 
L 1172 4494 
z
" transform="scale(0.015625)"/>
      <path id="DejaVuSans-73" d="M 2834 3397 
L 2834 2853 
Q 2591 2978 2328 3040 
Q 2066 3103 1784 3103 
Q 1356 3103 1142 2972 
Q 928 2841 928 2578 
Q 928 2378 1081 2264 
Q 1234 2150 1697 2047 
L 1894 2003 
Q 2506 1872 2764 1633 
Q 3022 1394 3022 966 
Q 3022 478 2636 193 
Q 2250 -91 1575 -91 
Q 1294 -91 989 -36 
Q 684 19 347 128 
L 347 722 
Q 666 556 975 473 
Q 1284 391 1588 391 
Q 1994 391 2212 530 
Q 2431 669 2431 922 
Q 2431 1156 2273 1281 
Q 2116 1406 1581 1522 
L 1381 1569 
Q 847 1681 609 1914 
Q 372 2147 372 2553 
Q 372 3047 722 3315 
Q 1072 3584 1716 3584 
Q 2034 3584 2315 3537 
Q 2597 3491 2834 3397 
z
" transform="scale(0.015625)"/>
      <path id="DejaVuSans-63" d="M 3122 3366 
L 3122 2828 
Q 2878 2963 2633 3030 
Q 2388 3097 2138 3097 
Q 1578 3097 1268 2742 
Q 959 2388 959 1747 
Q 959 1106 1268 751 
Q 1578 397 2138 397 
Q 2388 397 2633 464 
Q 2878 531 3122 666 
L 3122 134 
Q 2881 22 2623 -34 
Q 2366 -91 2075 -91 
Q 1284 -91 818 406 
Q 353 903 353 1747 
Q 353 2603 823 3093 
Q 1294 3584 2113 3584 
Q 2378 3584 2631 3529 
Q 2884 3475 3122 3366 
z
" transform="scale(0.015625)"/>
      <path id="DejaVuSans-68" d="M 3513 2113 
L 3513 0 
L 2938 0 
L 2938 2094 
Q 2938 2591 2744 2837 
Q 2550 3084 2163 3084 
Q 1697 3084 1428 2787 
Q 1159 2491 1159 1978 
L 1159 0 
L 581 0 
L 581 4863 
L 1159 4863 
L 1159 2956 
Q 1366 3272 1645 3428 
Q 1925 3584 2291 3584 
Q 2894 3584 3203 3211 
Q 3513 2838 3513 2113 
z
" transform="scale(0.015625)"/>
      <path id="DejaVuSans-72" d="M 2631 2963 
Q 2534 3019 2420 3045 
Q 2306 3072 2169 3072 
Q 1681 3072 1420 2755 
Q 1159 2438 1159 1844 
L 1159 0 
L 581 0 
L 581 3500 
L 1159 3500 
L 1159 2956 
Q 1341 3275 1631 3429 
Q 1922 3584 2338 3584 
Q 2397 3584 2469 3576 
Q 2541 3569 2628 3553 
L 2631 2963 
z
" transform="scale(0.015625)"/>
      <path id="DejaVuSans-20" transform="scale(0.015625)"/>
      <path id="DejaVuSans-67" d="M 2906 1791 
Q 2906 2416 2648 2759 
Q 2391 3103 1925 3103 
Q 1463 3103 1205 2759 
Q 947 2416 947 1791 
Q 947 1169 1205 825 
Q 1463 481 1925 481 
Q 2391 481 2648 825 
Q 2906 1169 2906 1791 
z
M 3481 434 
Q 3481 -459 3084 -895 
Q 2688 -1331 1869 -1331 
Q 1566 -1331 1297 -1286 
Q 1028 -1241 775 -1147 
L 775 -588 
Q 1028 -725 1275 -790 
Q 1522 -856 1778 -856 
Q 2344 -856 2625 -561 
Q 2906 -266 2906 331 
L 2906 616 
Q 2728 306 2450 153 
Q 2172 0 1784 0 
Q 1141 0 747 490 
Q 353 981 353 1791 
Q 353 2603 747 3093 
Q 1141 3584 1784 3584 
Q 2172 3584 2450 3431 
Q 2728 3278 2906 2969 
L 2906 3500 
L 3481 3500 
L 3481 434 
z
" transform="scale(0.015625)"/>
      <path id="DejaVuSans-77" d="M 269 3500 
L 844 3500 
L 1563 769 
L 2278 3500 
L 2956 3500 
L 3675 769 
L 4391 3500 
L 4966 3500 
L 4050 0 
L 3372 0 
L 2619 2869 
L 1863 0 
L 1184 0 
L 269 3500 
z
" transform="scale(0.015625)"/>
      <path id="DejaVuSans-69" d="M 603 3500 
L 1178 3500 
L 1178 0 
L 603 0 
L 603 3500 
z
M 603 4863 
L 1178 4863 
L 1178 4134 
L 603 4134 
L 603 4863 
z
" transform="scale(0.015625)"/>
      <path id="DejaVuSans-6e" d="M 3513 2113 
L 3513 0 
L 2938 0 
L 2938 2094 
Q 2938 2591 2744 2837 
Q 2550 3084 2163 3084 
Q 1697 3084 1428 2787 
Q 1159 2491 1159 1978 
L 1159 0 
L 581 0 
L 581 3500 
L 1159 3500 
L 1159 2956 
Q 1366 3272 1645 3428 
Q 1925 3584 2291 3584 
Q 2894 3584 3203 3211 
Q 3513 2838 3513 2113 
z
" transform="scale(0.015625)"/>
      <path id="DejaVuSans-4d" d="M 628 4666 
L 1569 4666 
L 2759 1491 
L 3956 4666 
L 4897 4666 
L 4897 0 
L 4281 0 
L 4281 4097 
L 3078 897 
L 2444 897 
L 1241 4097 
L 1241 0 
L 628 0 
L 628 4666 
z
" transform="scale(0.015625)"/>
      <path id="DejaVuSans-61" d="M 2194 1759 
Q 1497 1759 1228 1600 
Q 959 1441 959 1056 
Q 959 750 1161 570 
Q 1363 391 1709 391 
Q 2188 391 2477 730 
Q 2766 1069 2766 1631 
L 2766 1759 
L 2194 1759 
z
M 3341 1997 
L 3341 0 
L 2766 0 
L 2766 531 
Q 2569 213 2275 61 
Q 1981 -91 1556 -91 
Q 1019 -91 701 211 
Q 384 513 384 1019 
Q 384 1609 779 1909 
Q 1175 2209 1959 2209 
L 2766 2209 
L 2766 2266 
Q 2766 2663 2505 2880 
Q 2244 3097 1772 3097 
Q 1472 3097 1187 3025 
Q 903 2953 641 2809 
L 641 3341 
Q 956 3463 1253 3523 
Q 1550 3584 1831 3584 
Q 2591 3584 2966 3190 
Q 3341 2797 3341 1997 
z
" transform="scale(0.015625)"/>
     </defs>
     <use xlink:href="#DejaVuSans-47"/>
     <use xlink:href="#DejaVuSans-6c" x="77.490234"/>
     <use xlink:href="#DejaVuSans-65" x="105.273438"/>
     <use xlink:href="#DejaVuSans-74" x="166.796875"/>
     <use xlink:href="#DejaVuSans-73" x="206.005859"/>
     <use xlink:href="#DejaVuSans-63" x="258.105469"/>
     <use xlink:href="#DejaVuSans-68" x="313.085938"/>
     <use xlink:href="#DejaVuSans-65" x="376.464844"/>
     <use xlink:href="#DejaVuSans-72" x="437.988281"/>
     <use xlink:href="#DejaVuSans-20" x="479.101562"/>
     <use xlink:href="#DejaVuSans-67" x="510.888672"/>
     <use xlink:href="#DejaVuSans-65" x="574.365234"/>
     <use xlink:href="#DejaVuSans-77" x="635.888672"/>
     <use xlink:href="#DejaVuSans-69" x="717.675781"/>
     <use xlink:href="#DejaVuSans-6e" x="745.458984"/>
     <use xlink:href="#DejaVuSans-6e" x="808.837891"/>
     <use xlink:href="#DejaVuSans-74" x="872.216797"/>
     <use xlink:href="#DejaVuSans-20" x="911.425781"/>
     <use xlink:href="#DejaVuSans-4d" x="943.212891"/>
     <use xlink:href="#DejaVuSans-61" x="1029.492188"/>
     <use xlink:href="#DejaVuSans-73" x="1090.771484"/>
     <use xlink:href="#DejaVuSans-73" x="1142.871094"/>
     <use xlink:href="#DejaVuSans-65" x="1194.970703"/>
    </g>
   </g>
   <g id="text_23">
    <!-- Gletscher verliert Masse -->
    <g style="fill: #ed8366" transform="translate(60.934513 428.089972)scale(0.22 -0.22)">
     <defs>
      <path id="DejaVuSans-76" d="M 191 3500 
L 800 3500 
L 1894 563 
L 2988 3500 
L 3597 3500 
L 2284 0 
L 1503 0 
L 191 3500 
z
" transform="scale(0.015625)"/>
     </defs>
     <use xlink:href="#DejaVuSans-47"/>
     <use xlink:href="#DejaVuSans-6c" x="77.490234"/>
     <use xlink:href="#DejaVuSans-65" x="105.273438"/>
     <use xlink:href="#DejaVuSans-74" x="166.796875"/>
     <use xlink:href="#DejaVuSans-73" x="206.005859"/>
     <use xlink:href="#DejaVuSans-63" x="258.105469"/>
     <use xlink:href="#DejaVuSans-68" x="313.085938"/>
     <use xlink:href="#DejaVuSans-65" x="376.464844"/>
     <use xlink:href="#DejaVuSans-72" x="437.988281"/>
     <use xlink:href="#DejaVuSans-20" x="479.101562"/>
     <use xlink:href="#DejaVuSans-76" x="510.888672"/>
     <use xlink:href="#DejaVuSans-65" x="570.068359"/>
     <use xlink:href="#DejaVuSans-72" x="631.591797"/>
     <use xlink:href="#DejaVuSans-6c" x="672.705078"/>
     <use xlink:href="#DejaVuSans-69" x="700.488281"/>
     <use xlink:href="#DejaVuSans-65" x="728.271484"/>
     <use xlink:href="#DejaVuSans-72" x="789.794922"/>
     <use xlink:href="#DejaVuSans-74" x="830.908203"/>
     <use xlink:href="#DejaVuSans-20" x="870.117188"/>
     <use xlink:href="#DejaVuSans-4d" x="901.904297"/>
     <use xlink:href="#DejaVuSans-61" x="988.183594"/>
     <use xlink:href="#DejaVuSans-73" x="1049.462891"/>
     <use xlink:href="#DejaVuSans-73" x="1101.5625"/>
     <use xlink:href="#DejaVuSans-65" x="1153.662109"/>
    </g>
   </g>
   <g id="text_24">
    <!-- Hintereisferner  -->
    <g transform="translate(248.764 25.43625)scale(0.24 -0.24)">
     <defs>
      <path id="DejaVuSans-Bold-48" d="M 588 4666 
L 1791 4666 
L 1791 2888 
L 3566 2888 
L 3566 4666 
L 4769 4666 
L 4769 0 
L 3566 0 
L 3566 1978 
L 1791 1978 
L 1791 0 
L 588 0 
L 588 4666 
z
" transform="scale(0.015625)"/>
      <path id="DejaVuSans-Bold-66" d="M 2841 4863 
L 2841 4128 
L 2222 4128 
Q 1984 4128 1890 4042 
Q 1797 3956 1797 3744 
L 1797 3500 
L 2753 3500 
L 2753 2700 
L 1797 2700 
L 1797 0 
L 678 0 
L 678 2700 
L 122 2700 
L 122 3500 
L 678 3500 
L 678 3744 
Q 678 4316 997 4589 
Q 1316 4863 1984 4863 
L 2841 4863 
z
" transform="scale(0.015625)"/>
     </defs>
     <use xlink:href="#DejaVuSans-Bold-48"/>
     <use xlink:href="#DejaVuSans-Bold-69" x="83.691406"/>
     <use xlink:href="#DejaVuSans-Bold-6e" x="117.96875"/>
     <use xlink:href="#DejaVuSans-Bold-74" x="189.160156"/>
     <use xlink:href="#DejaVuSans-Bold-65" x="236.962891"/>
     <use xlink:href="#DejaVuSans-Bold-72" x="304.785156"/>
     <use xlink:href="#DejaVuSans-Bold-65" x="354.101562"/>
     <use xlink:href="#DejaVuSans-Bold-69" x="421.923828"/>
     <use xlink:href="#DejaVuSans-Bold-73" x="456.201172"/>
     <use xlink:href="#DejaVuSans-Bold-66" x="515.722656"/>
     <use xlink:href="#DejaVuSans-Bold-65" x="559.228516"/>
     <use xlink:href="#DejaVuSans-Bold-72" x="627.050781"/>
     <use xlink:href="#DejaVuSans-Bold-6e" x="676.367188"/>
     <use xlink:href="#DejaVuSans-Bold-65" x="747.558594"/>
     <use xlink:href="#DejaVuSans-Bold-72" x="815.380859"/>
     <use xlink:href="#DejaVuSans-Bold-20" x="864.697266"/>
    </g>
    <!--   -->
    <g transform="translate(352.5265 52.311)scale(0.24 -0.24)">
     <use xlink:href="#DejaVuSans-Bold-20"/>
    </g>
    <!--  -->
    <g transform="translate(356.704 79.18575)scale(0.24 -0.24)"/>
   </g>
   <g id="line2d_157">
    <path d="M 10.7 345.838067 
L 17.68998 345.799418 
L 24.67996 345.74376 
L 31.669939 345.664465 
L 38.659919 345.552715 
L 45.649899 345.396926 
L 52.639879 345.182103 
L 59.629859 344.889106 
L 66.619838 344.493863 
L 73.609818 343.966568 
L 80.599798 343.270892 
L 87.589778 342.363294 
L 94.579758 341.192501 
L 101.569737 339.699264 
L 108.559717 337.816484 
L 115.549697 335.469849 
L 122.539677 332.579064 
L 129.529657 329.0598 
L 136.519636 324.826415 
L 143.509616 319.795476 
L 150.499596 313.890075 
L 157.489576 307.044814 
L 164.479556 299.211312 
L 171.469535 290.363969 
L 178.459515 280.505673 
L 185.449495 269.673042 
L 192.439475 257.9408 
L 199.429455 245.424815 
L 206.419434 232.283413 
L 213.409414 218.716594 
L 220.399394 204.962923 
L 227.389374 191.293977 
L 234.379354 178.006422 
L 241.369333 165.411958 
L 248.359313 153.825563 
L 255.349293 143.552623 
L 262.339273 134.875668 
L 269.329253 128.041515 
L 276.319232 123.249613 
L 283.309212 120.642385 
L 290.299192 120.298194 
L 297.289172 122.22743 
L 304.279152 126.37199 
L 311.269131 132.608185 
L 318.259111 140.75287 
L 325.249091 150.57238 
L 332.239071 161.793649 
L 339.229051 174.116796 
L 346.21903 187.228351 
L 353.20901 200.81432 
L 360.19899 214.572353 
L 367.18897 228.222358 
L 374.178949 241.51511 
L 381.168929 254.238527 
L 388.158909 266.221516 
L 395.148889 277.335441 
L 402.138869 287.493405 
L 409.128848 296.647696 
L 416.118828 304.785763 
L 423.108808 311.925194 
L 430.098788 318.108106 
L 437.088768 323.395355 
L 444.078747 327.86093 
L 451.068727 331.58678 
L 458.058707 334.65829 
L 465.048687 337.160509 
L 472.038667 339.175187 
L 479.028646 340.778606 
L 486.018626 342.040132 
L 493.008606 343.02142 
L 499.998586 343.77614 
L 506.988566 344.350122 
L 513.978545 344.781805 
L 520.968525 345.102886 
L 527.958505 345.339082 
L 534.948485 345.510938 
L 541.938465 345.63462 
L 548.928444 345.722668 
L 555.918424 345.784674 
L 562.908404 345.82787 
L 569.898384 345.857641 
L 576.888364 345.877939 
L 583.878343 345.891632 
L 590.868323 345.90077 
L 597.858303 345.906805 
L 604.848283 345.910747 
L 611.838263 345.913296 
L 618.828242 345.914926 
L 625.818222 345.915958 
L 632.808202 345.916605 
L 639.798182 345.917005 
L 646.788162 345.917251 
L 653.778141 345.9174 
L 660.768121 345.917489 
L 667.758101 345.917543 
L 674.748081 345.917574 
L 681.738061 345.917592 
L 688.72804 345.917603 
L 695.71802 345.917609 
L 702.708 345.917612 
" clip-path="url(#p9bb2df2614)" style="fill: none; stroke: #000000; stroke-width: 4; stroke-linecap: square"/>
   </g>
  </g>
 </g>
 <defs>
  <clipPath id="p9bb2df2614">
   <rect x="10.7" y="118.042" width="692.008" height="227.875616"/>
  </clipPath>
 </defs>
</svg>
